<?xml version="1.0" encoding="utf-8"?>
<!-- Generator: Adobe Illustrator 21.0.0, SVG Export Plug-In . SVG Version: 6.00 Build 0)  -->
<svg version="1.1" id="Слой_1" xmlns="http://www.w3.org/2000/svg" xmlns:xlink="http://www.w3.org/1999/xlink" x="0px" y="0px"
	 viewBox="0 0 609.6 209.9" style="enable-background:new 0 0 609.6 209.9;" xml:space="preserve">
<style type="text/css">
	.st0{fill:#2A5FFF;}
</style>
<g>
	<polygon points="170.8,117.7 170.8,78.7 168.4,78.7 168.4,116.3 166.8,115.3 166.8,115.3 165,114.3 165,114.3 164.4,114 
		163.8,114.3 163.8,114.3 160.5,116.3 160.5,78.7 158.1,78.7 158.1,117.7 115.7,142.1 115.7,142.1 114.5,142.8 113.4,142.1 
		113.4,142.1 71.1,117.7 71.1,78.7 68.7,78.7 68.7,116.3 65.3,114.3 65.3,114.3 64.7,114 64.1,114.3 60.7,116.3 60.7,78.7 
		58.3,78.7 58.3,117.7 14.2,143.1 15.4,145.2 63.5,117.4 63.5,117.4 64.7,116.8 65.8,117.4 65.8,117.4 113.9,145.2 114.5,145.6 
		115.1,145.2 163.3,117.4 163.3,117.4 164.4,116.8 213.7,145.2 214.9,143.1 	"/>
	<path d="M57.7,70.5c3.1,1.8,7,1.8,7,1.8c3.9,0,7-1.8,7-1.8c3.1-1.8,4.9-5.2,4.9-5.2c1.8-3.4,1.8-7.8,1.8-7.8c0-4.5-1.8-7.8-1.8-7.8
		c-1.8-3.3-4.9-5.2-4.9-5.2c-3.1-1.8-7-1.8-7-1.8c-3.9,0-7,1.8-7,1.8c-3.2,1.8-4.9,5.2-4.9,5.2C51,53.2,51,57.6,51,57.6
		c0,4.3,1.8,7.7,1.8,7.7C54.5,68.6,57.7,70.5,57.7,70.5z M56.1,51.4c1.2-2.6,3.5-4,3.5-4c2.2-1.4,5.1-1.4,5.1-1.4
		c2.9,0,5.1,1.4,5.1,1.4c2.2,1.4,3.4,4,3.4,4c1.2,2.6,1.2,6.2,1.2,6.2c0,3.6-1.2,6.2-1.2,6.2c-1.2,2.6-3.4,4-3.4,4
		c-2.2,1.4-5.1,1.4-5.1,1.4c-2.8,0-5-1.4-5-1.4c-2.2-1.4-3.5-4-3.5-4C55,61.2,55,57.7,55,57.7C54.9,54,56.1,51.4,56.1,51.4z"/>
	<path d="M157.4,70.5c3.1,1.8,7,1.8,7,1.8c3.9,0,7-1.8,7-1.8c3.1-1.8,4.9-5.2,4.9-5.2c1.8-3.4,1.8-7.8,1.8-7.8
		c0-4.5-1.8-7.8-1.8-7.8c-1.8-3.3-4.9-5.2-4.9-5.2c-3.1-1.8-7-1.8-7-1.8c-3.9,0-7,1.8-7,1.8c-3.1,1.8-4.9,5.2-4.9,5.2
		c-1.8,3.4-1.8,7.8-1.8,7.8c0,4.3,1.8,7.7,1.8,7.7C154.3,68.6,157.4,70.5,157.4,70.5z M155.9,51.4c1.2-2.6,3.4-4,3.4-4
		c2.2-1.4,5.1-1.4,5.1-1.4c2.9,0,5.1,1.4,5.1,1.4c2.2,1.4,3.4,4,3.4,4c1.2,2.6,1.2,6.2,1.2,6.2c0,3.6-1.3,6.2-1.3,6.2
		c-1.2,2.6-3.4,4-3.4,4c-2.2,1.4-5.1,1.4-5.1,1.4c-2.8,0-5-1.4-5-1.4c-2.2-1.4-3.5-4-3.5-4c-1.2-2.6-1.2-6.1-1.2-6.1
		C154.7,54,155.9,51.4,155.9,51.4z"/>
</g>
<g>
	<polygon points="546.1,114.7 546.1,78.7 543.7,78.7 543.7,114.7 496.2,142.1 496.2,142.1 495,142.8 493.9,142.1 493.9,142.1 
		446.4,114.7 446.4,78.7 444,78.7 444,114.7 394.7,143.1 395.9,145.2 445.2,116.8 494.4,145.2 494.4,145.2 495,145.6 495.6,145.2 
		495.6,145.2 544.9,116.8 594.2,145.2 595.4,143.1 	"/>
	<rect x="462.8" y="44.9" transform="matrix(0.8654 -0.501 0.501 0.8654 39.5496 239.4273)" width="5.4" height="2.4"/>
	<rect x="473.6" y="38.6" transform="matrix(0.8654 -0.501 0.501 0.8654 44.1424 244.002)" width="5.4" height="2.4"/>
	<rect x="512.6" y="37" transform="matrix(0.5008 -0.8656 0.8656 0.5008 222.11 464.5917)" width="2.4" height="5.4"/>
	<rect x="523.5" y="43.4" transform="matrix(0.5007 -0.8656 0.8656 0.5007 222.1079 477.2088)" width="2.4" height="5.4"/>
	<path d="M438.1,70.5c3.2,1.8,7.1,1.8,7.1,1.8c3.9,0,7-1.8,7-1.8c3.1-1.8,4.9-5.2,4.9-5.2c1.8-3.4,1.8-7.8,1.8-7.8
		c0-4.5-1.8-7.8-1.8-7.8c-1.8-3.3-4.9-5.2-4.9-5.2c-3.1-1.8-7-1.8-7-1.8c-3.9,0-7,1.8-7,1.8c-3.2,1.8-4.9,5.2-4.9,5.2
		c-1.8,3.4-1.8,7.8-1.8,7.8c0,4.3,1.8,7.7,1.8,7.7C435,68.6,438.1,70.5,438.1,70.5z M436.6,51.4c1.2-2.6,3.4-4,3.4-4
		c2.2-1.4,5.1-1.4,5.1-1.4c2.9,0,5.1,1.4,5.1,1.4c2.2,1.4,3.5,4,3.5,4c1.2,2.6,1.2,6.2,1.2,6.2c0,3.6-1.2,6.2-1.2,6.2
		c-1.2,2.6-3.5,4-3.5,4c-2.2,1.4-5,1.4-5,1.4c-2.8,0-5.1-1.4-5.1-1.4c-2.2-1.4-3.4-4-3.4-4c-1.2-2.6-1.2-6.1-1.2-6.1
		C435.4,54,436.6,51.4,436.6,51.4z"/>
	<path d="M537.9,70.5c3.1,1.8,7,1.8,7,1.8c3.9,0,7-1.8,7-1.8c3.1-1.8,4.9-5.2,4.9-5.2c1.8-3.4,1.8-7.8,1.8-7.8
		c0-4.5-1.8-7.8-1.8-7.8c-1.8-3.3-4.9-5.2-4.9-5.2c-3.1-1.8-7-1.8-7-1.8c-3.9,0-7,1.8-7,1.8c-3.2,1.8-4.9,5.2-4.9,5.2
		c-1.8,3.4-1.8,7.8-1.8,7.8c0,4.3,1.8,7.7,1.8,7.7C534.8,68.6,537.9,70.5,537.9,70.5z M536.4,51.4c1.2-2.6,3.5-4,3.5-4
		C542.1,46,545,46,545,46c2.9,0,5.1,1.4,5.1,1.4c2.2,1.4,3.4,4,3.4,4c1.2,2.6,1.2,6.2,1.2,6.2c0,3.6-1.2,6.2-1.2,6.2
		c-1.2,2.6-3.4,4-3.4,4c-2.2,1.4-5.1,1.4-5.1,1.4c-2.8,0-5-1.4-5-1.4c-2.2-1.4-3.5-4-3.5-4c-1.2-2.6-1.2-6.1-1.2-6.1
		C535.2,54,536.4,51.4,536.4,51.4z"/>
	<polygon points="488,29.3 502.1,29.3 502.1,42.8 505.9,42.8 505.9,14.2 502.1,14.2 502.1,25.9 488,25.9 488,14.2 484.2,14.2 
		484.2,42.8 488,42.8 	"/>
	<path d="M532.4,86.7H530c0,1.2-0.1,2.3-0.2,3.5l2.4,0.2C532.4,89.2,532.4,87.9,532.4,86.7z"/>
	<path d="M528,104.3c1.2-2.1,2.1-4.4,2.8-6.8l-2.3-0.7c-0.7,2.2-1.6,4.3-2.6,6.3L528,104.3z"/>
	<path d="M491.6,121.5l-0.2,2.4c1.2,0.1,2.4,0.2,3.6,0.2s2.5-0.1,3.7-0.2l-0.2-2.4C496.2,121.7,493.9,121.7,491.6,121.5z"/>
	<path d="M466.2,110.5c1.5,1.9,3.3,3.6,5.2,5.2l1.5-1.9c-1.8-1.4-3.4-3.1-4.9-4.8L466.2,110.5z"/>
	<path d="M477.5,119.7c2.2,1.2,4.4,2.1,6.8,2.8l0.7-2.3c-2.2-0.7-4.3-1.5-6.3-2.6L477.5,119.7z"/>
	<path d="M462.1,104.4l2.1-1.1c-1.1-2-2-4.1-2.6-6.3l-2.3,0.7C460,100,460.9,102.2,462.1,104.4z"/>
	<path d="M505.9,122.5c2.3-0.7,4.6-1.6,6.8-2.8l-1.1-2.1c-2,1.1-4.1,2-6.3,2.6L505.9,122.5z"/>
	<path d="M523.9,110.4l-1.9-1.5c-1.5,1.8-3.1,3.4-4.8,4.8l1.5,1.9C520.6,114.1,522.4,112.3,523.9,110.4z"/>
	<path d="M457.8,90.4l2.4-0.2c-0.1-1.1-0.2-2.3-0.2-3.5h-2.4C457.6,87.9,457.7,89.2,457.8,90.4z"/>
</g>
<g>
	<polygon points="244.8,94.1 234.7,94.1 268.4,108.1 270.7,96.5 364.8,96.5 364.8,94.1 271.2,94.1 	"/>
	<polygon points="341.1,67.7 338.8,79.3 244.8,79.3 244.8,81.7 338.3,81.7 364.8,81.7 374.8,81.7 	"/>
</g>
<g>
	<path class="st0" d="M81.6,180.3l12.7-13.7h4.9l-11,11.3l11.4,17.3H95l-9.5-14.7l-4.1,4.2v10.4h-3.8v-28.6h3.8v13.8H81.6z"/>
	<path class="st0" d="M109.8,192.8c1.3,0,2.5-0.4,3.4-1.2c1-0.8,1.6-1.8,2-3.1l3.4,0.5c-0.6,2.1-1.7,3.7-3.3,4.9
		c-1.6,1.2-3.5,1.7-5.8,1.7c-2,0-3.7-0.4-5.2-1.3s-2.6-2.1-3.4-3.7c-0.8-1.6-1.2-3.5-1.2-5.7s0.4-4.2,1.2-5.8s1.9-2.9,3.4-3.8
		s3.2-1.3,5.2-1.3c1.9,0,3.6,0.4,5,1.3c1.4,0.9,2.5,2.1,3.3,3.8s1.2,3.6,1.2,6v0.7h-15.5c0.1,1.5,0.4,2.8,0.9,3.8
		c0.5,1.1,1.3,1.9,2.2,2.4S108.6,192.8,109.8,192.8z M109.6,176.9c-1,0-2,0.2-2.8,0.7s-1.5,1.2-2.1,2.1c-0.5,0.9-0.9,1.9-1,3.1h11.7
		c-0.2-1.9-0.8-3.4-1.8-4.4S111.2,176.9,109.6,176.9z"/>
	<path class="st0" d="M126.5,174.5h3.9v2.7h-3.9v12.6c0,0.8,0.1,1.3,0.2,1.7s0.3,0.6,0.6,0.8s0.7,0.2,1.1,0.2c0.5,0,1.1-0.1,2-0.3
		l0.5,2.9c-1,0.2-2,0.4-3,0.4c-1.3,0-2.2-0.2-2.9-0.6s-1.2-0.9-1.5-1.7c-0.3-0.7-0.4-2-0.4-3.8v-12.2h-3v-2.7h3v-4.8l3.5-2.5
		L126.5,174.5L126.5,174.5z"/>
	<path class="st0" d="M131.8,184.9c0-2.3,0.4-4.2,1.2-5.8s1.9-2.9,3.4-3.7s3.2-1.3,5.1-1.3c1.9,0,3.6,0.4,5.1,1.2s2.6,2.1,3.4,3.7
		c0.8,1.6,1.2,3.6,1.2,5.9c0,2.3-0.4,4.2-1.2,5.9s-2,2.9-3.4,3.7s-3.2,1.3-5.1,1.3c-1.9,0-3.6-0.4-5-1.2c-1.5-0.8-2.6-2.1-3.4-3.7
		C132.2,189.2,131.8,187.2,131.8,184.9z M141.5,176.9c-1.2,0-2.2,0.3-3.1,0.9s-1.6,1.5-2.2,2.7s-0.8,2.6-0.8,4.3s0.3,3.2,0.8,4.3
		c0.5,1.2,1.2,2.1,2.2,2.7s2,0.9,3.2,0.9s2.3-0.3,3.2-0.9c0.9-0.6,1.6-1.5,2.1-2.7s0.8-2.6,0.8-4.3s-0.3-3.1-0.8-4.3
		s-1.2-2.1-2.2-2.7C143.8,177.2,142.7,176.9,141.5,176.9z"/>
</g>
<g>
	<path class="st0" d="M478.4,170h-14.2v8.8h13.1v3.4h-13.1v9.7h14.9v3.4h-18.7v-28.6h18L478.4,170L478.4,170z"/>
	<path class="st0" d="M496.1,195.2v-13.6c0-1.5-0.4-2.7-1.1-3.4c-0.8-0.8-1.8-1.2-3.2-1.2c-1.7,0-3.1,0.5-4.1,1.6s-1.5,2.7-1.5,5
		v11.5h-3.5v-20.7h3.3v2.9c0.7-1,1.6-1.9,2.7-2.5s2.3-0.9,3.7-0.9c2.4,0,4.2,0.6,5.4,1.9c1.2,1.2,1.8,3,1.8,5.3v14L496.1,195.2
		L496.1,195.2z"/>
	<path class="st0" d="M503.1,184.9c0-2.3,0.4-4.2,1.2-5.8s1.9-2.9,3.4-3.7s3.2-1.3,5.1-1.3c1.9,0,3.6,0.4,5.1,1.2s2.6,2.1,3.4,3.7
		s1.2,3.6,1.2,5.9c0,2.3-0.4,4.2-1.2,5.9s-2,2.9-3.4,3.7s-3.2,1.3-5.1,1.3c-1.9,0-3.6-0.4-5-1.2s-2.6-2.1-3.4-3.7
		S503.1,187.2,503.1,184.9z M512.8,176.9c-1.2,0-2.2,0.3-3.1,0.9s-1.6,1.5-2.2,2.7s-0.8,2.6-0.8,4.3s0.3,3.2,0.8,4.3
		s1.2,2.1,2.2,2.7s2,0.9,3.2,0.9c1.2,0,2.3-0.3,3.2-0.9s1.6-1.5,2.1-2.7s0.8-2.6,0.8-4.3s-0.3-3.1-0.8-4.3s-1.2-2.1-2.2-2.7
		S514,176.9,512.8,176.9z"/>
	<path class="st0" d="M529.7,195.2h-3.5v-28.6h3.5V195.2z"/>
</g>
</svg>
