<?xml version="1.0" encoding="UTF-8" standalone="no"?>
<!-- Created with Inkscape (http://www.inkscape.org/) -->

<svg
   xmlns:dc="http://purl.org/dc/elements/1.1/"
   xmlns:cc="http://creativecommons.org/ns#"
   xmlns:rdf="http://www.w3.org/1999/02/22-rdf-syntax-ns#"
   xmlns:svg="http://www.w3.org/2000/svg"
   xmlns="http://www.w3.org/2000/svg"
   xmlns:sodipodi="http://sodipodi.sourceforge.net/DTD/sodipodi-0.dtd"
   xmlns:inkscape="http://www.inkscape.org/namespaces/inkscape"
   width="121.50275mm"
   height="95.048729mm"
   viewBox="0 0 430.52154 336.78684"
   id="svg2"
   version="1.1"
   inkscape:version="0.91 r13725"
   sodipodi:docname="equilibrium.svg">
  <sodipodi:namedview
     id="base"
     pagecolor="#ffffff"
     bordercolor="#666666"
     borderopacity="1.0"
     inkscape:pageopacity="0.0"
     inkscape:pageshadow="2"
     inkscape:zoom="1.3745495"
     inkscape:cx="165.72843"
     inkscape:cy="148.91227"
     inkscape:document-units="px"
     inkscape:current-layer="layer1"
     showgrid="false"
     inkscape:window-width="2560"
     inkscape:window-height="1376"
     inkscape:window-x="0"
     inkscape:window-y="27"
     inkscape:window-maximized="1"
     fit-margin-top="0"
     fit-margin-left="0"
     fit-margin-right="0"
     fit-margin-bottom="0" />
  <defs
     id="defs4">
    <marker
       inkscape:isstock="true"
       style="overflow:visible"
       id="marker7884"
       refX="0"
       refY="0"
       orient="auto"
       inkscape:stockid="Arrow1Mend">
      <path
         transform="matrix(-0.4,0,0,-0.4,-4,0)"
         style="fill:#000000;fill-opacity:1;fill-rule:evenodd;stroke:#000000;stroke-width:1pt;stroke-opacity:1"
         d="M 0,0 5,-5 -12.5,0 5,5 0,0 Z"
         id="path7886"
         inkscape:connector-curvature="0" />
    </marker>
    <marker
       inkscape:stockid="Arrow1Mend"
       orient="auto"
       refY="0"
       refX="0"
       id="Arrow1Mend"
       style="overflow:visible"
       inkscape:isstock="true"
       inkscape:collect="always">
      <path
         id="path4151"
         d="M 0,0 5,-5 -12.5,0 5,5 0,0 Z"
         style="fill:#ff0000;fill-opacity:1;fill-rule:evenodd;stroke:#ff0000;stroke-width:1pt;stroke-opacity:1"
         transform="matrix(-0.4,0,0,-0.4,-4,0)"
         inkscape:connector-curvature="0" />
    </marker>
    <marker
       inkscape:isstock="true"
       style="overflow:visible"
       id="marker7554"
       refX="0"
       refY="0"
       orient="auto"
       inkscape:stockid="Arrow1Mstart">
      <path
         transform="matrix(0.4,0,0,0.4,4,0)"
         style="fill:#000000;fill-opacity:1;fill-rule:evenodd;stroke:#000000;stroke-width:1pt;stroke-opacity:1"
         d="M 0,0 5,-5 -12.5,0 5,5 0,0 Z"
         id="path7556"
         inkscape:connector-curvature="0" />
    </marker>
    <marker
       inkscape:stockid="Arrow1Mstart"
       orient="auto"
       refY="0"
       refX="0"
       id="Arrow1Mstart"
       style="overflow:visible"
       inkscape:isstock="true"
       inkscape:collect="always">
      <path
         id="path4148"
         d="M 0,0 5,-5 -12.5,0 5,5 0,0 Z"
         style="fill:#ff0000;fill-opacity:1;fill-rule:evenodd;stroke:#ff0000;stroke-width:1pt;stroke-opacity:1"
         transform="matrix(0.4,0,0,0.4,4,0)"
         inkscape:connector-curvature="0" />
    </marker>
    <marker
       inkscape:isstock="true"
       style="overflow:visible"
       id="marker7092"
       refX="0"
       refY="0"
       orient="auto"
       inkscape:stockid="Arrow2Mend">
      <path
         transform="scale(-0.6,-0.6)"
         d="M 8.7185878,4.0337352 -2.2072895,0.01601326 8.7185884,-4.0017078 c -1.7454984,2.3720609 -1.7354408,5.6174519 -6e-7,8.035443 z"
         style="fill:#0000ff;fill-opacity:1;fill-rule:evenodd;stroke:#0000ff;stroke-width:0.625;stroke-linejoin:round;stroke-opacity:1"
         id="path7094"
         inkscape:connector-curvature="0" />
    </marker>
    <marker
       inkscape:stockid="Arrow2Mend"
       orient="auto"
       refY="0"
       refX="0"
       id="Arrow2Mend"
       style="overflow:visible"
       inkscape:isstock="true"
       inkscape:collect="always">
      <path
         id="path4169"
         style="fill:#000000;fill-opacity:1;fill-rule:evenodd;stroke:#000000;stroke-width:0.625;stroke-linejoin:round;stroke-opacity:1"
         d="M 8.7185878,4.0337352 -2.2072895,0.01601326 8.7185884,-4.0017078 c -1.7454984,2.3720609 -1.7354408,5.6174519 -6e-7,8.035443 z"
         transform="scale(-0.6,-0.6)"
         inkscape:connector-curvature="0" />
    </marker>
    <marker
       inkscape:isstock="true"
       style="overflow:visible"
       id="marker6798"
       refX="0"
       refY="0"
       orient="auto"
       inkscape:stockid="Arrow2Mstart">
      <path
         transform="scale(0.6,0.6)"
         d="M 8.7185878,4.0337352 -2.2072895,0.01601326 8.7185884,-4.0017078 c -1.7454984,2.3720609 -1.7354408,5.6174519 -6e-7,8.035443 z"
         style="fill:#0000ff;fill-opacity:1;fill-rule:evenodd;stroke:#0000ff;stroke-width:0.625;stroke-linejoin:round;stroke-opacity:1"
         id="path6800"
         inkscape:connector-curvature="0" />
    </marker>
    <marker
       inkscape:stockid="Arrow2Mstart"
       orient="auto"
       refY="0"
       refX="0"
       id="Arrow2Mstart"
       style="overflow:visible"
       inkscape:isstock="true"
       inkscape:collect="always">
      <path
         id="path4166"
         style="fill:#000000;fill-opacity:1;fill-rule:evenodd;stroke:#000000;stroke-width:0.625;stroke-linejoin:round;stroke-opacity:1"
         d="M 8.7185878,4.0337352 -2.2072895,0.01601326 8.7185884,-4.0017078 c -1.7454984,2.3720609 -1.7354408,5.6174519 -6e-7,8.035443 z"
         transform="scale(0.6,0.6)"
         inkscape:connector-curvature="0" />
    </marker>
    <marker
       inkscape:stockid="Arrow1Lend"
       orient="auto"
       refY="0"
       refX="0"
       id="Arrow1Lend"
       style="overflow:visible"
       inkscape:isstock="true"
       inkscape:collect="always">
      <path
         id="path4145"
         d="M 0,0 5,-5 -12.5,0 5,5 0,0 Z"
         style="fill:#000000;fill-opacity:1;fill-rule:evenodd;stroke:#000000;stroke-width:1pt;stroke-opacity:1"
         transform="matrix(-0.8,0,0,-0.8,-10,0)"
         inkscape:connector-curvature="0" />
    </marker>
  </defs>
  <metadata
     id="metadata7">
    <rdf:RDF>
      <cc:Work
         rdf:about="">
        <dc:format>image/svg+xml</dc:format>
        <dc:type
           rdf:resource="http://purl.org/dc/dcmitype/StillImage" />
        <dc:title />
      </cc:Work>
    </rdf:RDF>
  </metadata>
  <g
     inkscape:label="Layer 1"
     inkscape:groupmode="layer"
     id="layer1"
     style="display:inline"
     transform="translate(-75.826883,-368.74731)">
    <path
       style="fill:none;fill-rule:evenodd;stroke:#000000;stroke-width:0.90468043px;stroke-linecap:butt;stroke-linejoin:miter;stroke-opacity:1;marker-end:url(#Arrow1Lend)"
       d="m 80.360104,699.99072 0,-329.59687"
       id="path4466"
       inkscape:connector-curvature="0" />
    <path
       style="fill:none;fill-rule:evenodd;stroke:#0000ff;stroke-width:2;stroke-linecap:butt;stroke-linejoin:miter;stroke-miterlimit:4;stroke-dasharray:none;stroke-opacity:1"
       d="m 334.61632,674.51809 63.68159,0"
       id="path4486"
       inkscape:connector-curvature="0" />
    <path
       style="display:inline;fill:none;fill-rule:evenodd;stroke:#0000ff;stroke-width:2;stroke-linecap:butt;stroke-linejoin:miter;stroke-miterlimit:4;stroke-dasharray:none;stroke-opacity:1"
       d="m 110.82101,583.54439 63.68159,0"
       id="path4486-7"
       inkscape:connector-curvature="0" />
    <path
       style="display:inline;fill:none;fill-rule:evenodd;stroke:#ff0000;stroke-width:2;stroke-linecap:butt;stroke-linejoin:miter;stroke-miterlimit:4;stroke-dasharray:none;stroke-opacity:1"
       d="m 110.82101,546.54842 63.68159,0"
       id="path4486-7-5"
       inkscape:connector-curvature="0" />
    <path
       style="display:inline;fill:none;fill-rule:evenodd;stroke:#ff0000;stroke-width:2;stroke-linecap:butt;stroke-linejoin:miter;stroke-miterlimit:4;stroke-dasharray:none;stroke-opacity:1"
       d="m 334.61632,618.1144 63.68159,0"
       id="path4486-7-3"
       inkscape:connector-curvature="0" />
    <path
       style="display:inline;fill:none;fill-rule:evenodd;stroke:#0000ff;stroke-width:2;stroke-linecap:butt;stroke-linejoin:miter;stroke-miterlimit:4;stroke-dasharray:none;stroke-opacity:1"
       d="m 215.74401,489.53823 63.68159,0"
       id="path4486-7-56"
       inkscape:connector-curvature="0" />
    <path
       style="display:inline;fill:none;fill-rule:evenodd;stroke:#ff0000;stroke-width:2;stroke-linecap:butt;stroke-linejoin:miter;stroke-miterlimit:4;stroke-dasharray:none;stroke-opacity:1"
       d="m 215.74401,417.36576 63.68159,0"
       id="path4486-7-2"
       inkscape:connector-curvature="0" />
    <path
       style="fill:none;fill-rule:evenodd;stroke:#0000ff;stroke-width:1;stroke-linecap:butt;stroke-linejoin:miter;stroke-miterlimit:4;stroke-dasharray:1, 1;stroke-dashoffset:0;stroke-opacity:1"
       d="m 174.19936,582.9379 40.63492,-92.79318"
       id="path4556"
       inkscape:connector-curvature="0" />
    <path
       style="fill:none;fill-rule:evenodd;stroke:#0000ff;stroke-width:1;stroke-linecap:butt;stroke-linejoin:miter;stroke-miterlimit:4;stroke-dasharray:1, 1;stroke-dashoffset:0;stroke-opacity:1"
       d="M 279.12236,488.93174 334.31307,673.9116"
       id="path4558"
       inkscape:connector-curvature="0" />
    <path
       style="fill:none;fill-rule:evenodd;stroke:#ff0000;stroke-width:1;stroke-linecap:butt;stroke-linejoin:miter;stroke-miterlimit:4;stroke-dasharray:1, 1;stroke-dashoffset:0;stroke-opacity:1"
       d="M 174.80585,544.72894 216.04726,416.15278"
       id="path4560"
       inkscape:connector-curvature="0" />
    <path
       style="fill:none;fill-rule:evenodd;stroke:#ff0000;stroke-width:1;stroke-linecap:butt;stroke-linejoin:miter;stroke-miterlimit:4;stroke-dasharray:1, 1;stroke-dashoffset:0;stroke-opacity:1"
       d="m 279.12236,417.97225 55.7972,199.53565"
       id="path4562"
       inkscape:connector-curvature="0" />
    <path
       style="fill:none;fill-rule:evenodd;stroke:#000000;stroke-width:0.93171901;stroke-linecap:butt;stroke-linejoin:miter;stroke-miterlimit:4;stroke-dasharray:3.72687598, 7.45375197;stroke-dashoffset:0;stroke-opacity:1"
       d="m 335.04058,675.45214 -253.770739,0"
       id="path4886"
       inkscape:connector-curvature="0" />
    <path
       style="fill:none;fill-rule:evenodd;stroke:#000000;stroke-width:1;stroke-linecap:butt;stroke-linejoin:miter;stroke-miterlimit:4;stroke-dasharray:4, 4;stroke-dashoffset:0;stroke-opacity:1"
       d="m 175.41234,546.54842 220.76285,0"
       id="path4952"
       inkscape:connector-curvature="0" />
    <path
       style="fill:none;fill-rule:evenodd;stroke:#0000ff;stroke-width:1px;stroke-linecap:butt;stroke-linejoin:miter;stroke-opacity:1;marker-start:url(#marker6798);marker-end:url(#marker7092)"
       d="m 140.23584,673.9116 0,-89.76072"
       id="path4954"
       inkscape:connector-curvature="0" />
    <path
       style="fill:none;fill-rule:evenodd;stroke:#ff0000;stroke-width:1px;stroke-linecap:butt;stroke-linejoin:miter;stroke-opacity:1;marker-start:url(#Arrow1Mstart);marker-end:url(#Arrow1Mend)"
       d="m 366.45711,616.90141 0,-70.95948"
       id="path4956"
       inkscape:connector-curvature="0" />
    <path
       style="fill:none;fill-rule:evenodd;stroke:#000000;stroke-width:1px;stroke-linecap:butt;stroke-linejoin:miter;stroke-opacity:1;marker-start:url(#Arrow2Mstart);marker-end:url(#Arrow2Mend)"
       d="m 347.04939,619.93387 0,53.97773"
       id="path4958"
       inkscape:connector-curvature="0" />
    <path
       style="fill:none;fill-rule:evenodd;stroke:#000000;stroke-width:1px;stroke-linecap:butt;stroke-linejoin:miter;stroke-opacity:1;marker-start:url(#marker7554);marker-end:url(#marker7884)"
       d="m 125.07356,547.7614 0,35.78299"
       id="path4960"
       inkscape:connector-curvature="0" />
    <g
       transform="matrix(0.67600742,0,0,0.67600742,-4.3278884,462.69363)"
       id="g8133">
      <g
         style="font-style:normal;font-variant:normal;font-weight:normal;font-stretch:normal;letter-spacing:normal;word-spacing:normal;text-anchor:start;fill:none;fill-opacity:1;fill-rule:evenodd;stroke:#000000;stroke-linecap:butt;stroke-linejoin:miter;stroke-miterlimit:10.43299961;stroke-dasharray:none;stroke-dashoffset:0;stroke-opacity:1"
         id="content"
         transform="matrix(1.0629921,0,0,-1.0629921,-186.02362,789.27165)"
         xml:space="preserve"
         stroke-miterlimit="10.433"
         font-style="normal"
         font-variant="normal"
         font-weight="normal"
         font-stretch="normal"
         font-size-adjust="none"
         letter-spacing="normal"
         word-spacing="normal"><path
           style="fill:#000000;stroke-width:0"
           inkscape:connector-curvature="0"
           d="m 490.74,406.2 0,0.95 c -2.58,0.3 -3.28,1.35 -4.67,4.58 l -12.27,28.05 -1,0 -10.25,-24.32 c -2.95,-6.96 -3.39,-8.01 -6.28,-8.31 l 0,-0.95 9.91,0 0,0.95 c -2.39,0 -3.49,0.49 -3.49,2.03 0,0.61 0.2,1.46 0.45,2.1 l 2.3,5.68 13.05,0 -0.7,2.04 -11.5,0 5.71,13.7 5.79,-13.7 0.7,-2.04 2.05,-4.68 c 0.59,-1.39 0.93,-2.74 0.93,-3.49 0,-0.45 -0.29,-1 -0.68,-1.2 -0.61,-0.34 -0.96,-0.44 -2.75,-0.44 l 0,-0.95 z"
           id="path8136" /><path
           style="fill:#000000;stroke-width:0"
           inkscape:connector-curvature="0"
           d="m 547.96,422.14 0,0.25 c -4.78,2.29 -8.86,6.92 -11.84,10.67 l -1,-0.95 c 1.14,-1.65 2.09,-3.24 3.58,-4.79 0.45,-0.45 0.7,-0.79 0.7,-1.2 0,-0.48 -0.41,-0.69 -1.3,-0.69 l -29.3,0 0,-3.29 z"
           id="path8138" /><path
           style="fill:#000000;stroke-width:0"
           inkscape:connector-curvature="0"
           d="m 547.96,412.18 0,3.28 -39.16,0 0,-0.25 c 4.79,-2.29 8.88,-6.92 11.86,-10.65 l 1,0.94 c -1.14,1.65 -2.09,3.25 -3.59,4.78 -0.44,0.45 -0.69,0.79 -0.69,1.2 0,0.5 0.39,0.7 1.3,0.7 z"
           id="path8140" /><path
           style="fill:#000000;stroke-width:0"
           inkscape:connector-curvature="0"
           d="m 586.35,423.59 0.24,0.06 0.22,0.06 0.22,0.05 0.21,0.06 0.21,0.06 0.19,0.05 0.19,0.06 0.18,0.05 0.18,0.05 0.17,0.06 0.16,0.05 0.16,0.06 0.15,0.05 0.14,0.06 0.15,0.06 0.13,0.05 0.14,0.06 0.13,0.06 0.25,0.13 0.24,0.13 0.23,0.15 0.22,0.15 0.22,0.16 0.23,0.17 0.11,0.1 0.11,0.09 c 1.23,1.1 2.03,3.14 2.03,5.18 0,5.28 -4.42,8.32 -13.05,8.32 l -0.84,-1.84 c 5.92,0 8.81,-2.55 8.81,-6.73 0,-4.13 -2.43,-6.18 -7.47,-6.18 l -4.58,0 0,-2 c 5.88,-0.18 7.77,0 10.75,-1.98 1.65,-1.09 2.35,-2.94 2.35,-5.33 0,-2.14 -0.64,-3.84 -1.89,-4.94 -2.19,-1.93 -3.94,-2.14 -8.13,-2.14 -2.28,0 -3.08,0.55 -3.08,2.24 l 0,12.15 0,2 0,11.32 c 0,1.14 0.35,1.59 1.19,1.59 l 2.05,0 0.84,1.84 -13.95,0 0,-0.95 c 4.03,-0.25 4.78,-0.69 4.78,-4.62 l 0,-21.79 c 0,-3.78 -0.84,-4.57 -4.78,-4.67 l 0,-0.95 16.8,0 c 7.22,0 11.9,3.34 11.9,8.87 0,2.19 -0.84,4.29 -2.43,5.72 -1.46,1.3 -2.8,2.21 -6.08,2.75 z"
           id="path8142" /></g>    </g>
    <g
       id="g8501"
       transform="matrix(0.37850892,0,0,0.37850892,257.39101,449.96935)"
       style="stroke:#0000ff;stroke-opacity:1">
      <g
         id="g8503"
         transform="matrix(1.0629921,0,0,-1.0629921,-186.02362,789.27165)"
         xml:space="preserve"
         stroke-miterlimit="10.433"
         font-style="normal"
         font-variant="normal"
         font-weight="normal"
         font-stretch="normal"
         font-size-adjust="none"
         letter-spacing="normal"
         word-spacing="normal"
         style="font-style:normal;font-variant:normal;font-weight:normal;font-stretch:normal;letter-spacing:normal;word-spacing:normal;text-anchor:start;fill:none;fill-opacity:1;fill-rule:evenodd;stroke:#0000ff;stroke-linecap:butt;stroke-linejoin:miter;stroke-miterlimit:10.43299961;stroke-dasharray:none;stroke-dashoffset:0;stroke-opacity:1"><polygon
           points="481.63,410.78 462.3,410.78 457.91,406.2 489.14,406.2 473.8,439.78 472.8,439.78 457.91,406.2 462.3,410.78 472,432.7 "
           id="polygon8505"
           style="fill:#ff0000;fill-opacity:1;stroke:#0000ff;stroke-width:0;stroke-opacity:1" /><path
           d="m 528.08,422.59 -15.59,0 -0.19,-0.8 0.94,0 c 3.04,0 3.73,-0.75 3.73,-1.84 0,-0.34 -0.04,-0.84 -0.14,-1.25 l -2.84,-10.02 c -1.34,-0.84 -2.8,-1.23 -4.83,-1.23 -7.33,0 -9.02,4.83 -9.02,8.91 0,8.92 4.43,21.28 15.85,21.28 5.62,0 7.97,-4.03 7.97,-7.68 0,-0.54 -0.05,-1.09 -0.11,-1.59 l 0.8,0 2.25,11.11 -0.8,0 c -0.16,-0.8 -1.05,-1.84 -2.14,-1.84 -1.1,0 -2.05,0.75 -3.14,1.04 -1.1,0.35 -2.69,0.8 -5.14,0.8 -12.6,0 -21.68,-10.77 -21.68,-21.22 0,-8.92 6.74,-12.65 14.55,-12.65 3.14,0 6.89,0 10.81,2.34 l 3.1,10.75 c 0.5,1.8 1.39,3.09 5.62,3.09 z"
           id="path8507"
           inkscape:connector-curvature="0"
           style="fill:#ff0000;fill-opacity:1;stroke:#0000ff;stroke-width:0;stroke-opacity:1" /><path
           d="m 546.83,435.91 -0.01,0.71 -0.03,0.7 -0.05,0.68 -0.07,0.66 -0.08,0.65 -0.11,0.63 -0.12,0.62 -0.14,0.59 -0.15,0.58 -0.18,0.56 -0.19,0.54 -0.2,0.52 -0.22,0.5 -0.24,0.48 -0.25,0.46 -0.27,0.43 -0.28,0.42 -0.29,0.39 -0.31,0.37 -0.32,0.34 -0.34,0.32 -0.35,0.29 -0.35,0.27 -0.38,0.25 -0.38,0.21 -0.39,0.19 -0.41,0.16 -0.41,0.13 -0.43,0.11 -0.43,0.07 -0.45,0.05 -0.45,0.01 c -6,0 -8.58,-6.07 -8.58,-12.67 0,-6.12 2.06,-13.04 8.44,-13.04 l 0,0.96 c -3.22,0 -4.86,4.25 -4.86,11.82 0,7.58 1.68,11.97 4.78,11.97 3.28,0 4.92,-4.36 4.92,-12.11 l 0,0 c 0,-7.39 -1.69,-11.68 -4.84,-11.68 l 0,-0.96 c 6.07,0 8.42,6.4 8.42,12.82 z"
           id="path8509"
           inkscape:connector-curvature="0"
           style="fill:#ff0000;fill-opacity:1;stroke:#0000ff;stroke-width:0;stroke-opacity:1" /><path
           d="m 565.34,398.18 -0.64,0.55 -0.6,0.55 -0.58,0.54 -0.54,0.55 -0.52,0.55 -0.49,0.55 -0.46,0.55 -0.43,0.56 -0.41,0.56 -0.38,0.57 -0.36,0.57 -0.33,0.58 -0.31,0.58 -0.29,0.6 -0.26,0.6 -0.25,0.61 -0.22,0.63 -0.21,0.63 -0.18,0.64 -0.17,0.66 -0.15,0.67 -0.13,0.69 -0.11,0.69 -0.11,0.72 -0.08,0.72 -0.07,0.75 -0.06,0.76 -0.05,0.78 -0.04,0.8 -0.02,0.82 -0.01,0.83 -0.01,0.86 c 0,9.61 1.55,14.25 8.47,20.17 l -0.44,0.8 c -7.98,-4.72 -12.31,-11.91 -12.31,-21.11 0,-8.48 4.28,-16.89 12.16,-21.37 z"
           id="path8511"
           inkscape:connector-curvature="0"
           style="fill:#ff0000;fill-opacity:1;stroke:#0000ff;stroke-width:0;stroke-opacity:1" /><path
           d="m 582.45,406.2 0,0.95 c -4.08,0.14 -4.88,0.89 -4.88,4.63 l 0,21.87 c 0,3.78 0.7,4.38 4.88,4.58 l 0,0.95 -14.8,0 0,-0.95 c 4.23,-0.25 4.84,-0.64 4.84,-4.58 l 0,-21.87 c 0,-3.89 -0.65,-4.49 -4.84,-4.63 l 0,-0.95 z"
           id="path8513"
           inkscape:connector-curvature="0"
           style="fill:#ff0000;fill-opacity:1;stroke:#0000ff;stroke-width:0;stroke-opacity:1" /><path
           d="m 584.75,439.07 0.66,-0.53 0.63,-0.53 0.59,-0.54 0.57,-0.53 0.52,-0.54 0.5,-0.55 0.47,-0.54 0.44,-0.56 0.41,-0.55 0.39,-0.57 0.36,-0.57 0.33,-0.58 0.31,-0.59 0.28,-0.59 0.26,-0.61 0.24,-0.61 0.22,-0.63 0.19,-0.63 0.18,-0.65 0.16,-0.66 0.14,-0.68 0.13,-0.69 0.11,-0.7 0.09,-0.72 0.08,-0.73 0.06,-0.75 0.06,-0.77 0.04,-0.78 0.03,-0.81 0.02,-0.82 0.01,-0.84 0.01,-0.86 c 0,-9.68 -1.41,-14.35 -8.49,-20.18 l 0.46,-0.79 c 7.92,4.82 12.31,11.9 12.31,21.12 0,8.47 -4.53,16.78 -12.16,21.36 z"
           id="path8515"
           inkscape:connector-curvature="0"
           style="fill:#ff0000;fill-opacity:1;stroke:#0000ff;stroke-width:0;stroke-opacity:1" /></g>    </g>
    <g
       id="g8709"
       transform="matrix(0.35631281,0,0,0.35631281,37.238314,507.84426)">
      <g
         word-spacing="normal"
         letter-spacing="normal"
         font-size-adjust="none"
         font-stretch="normal"
         font-weight="normal"
         font-variant="normal"
         font-style="normal"
         stroke-miterlimit="10.433"
         xml:space="preserve"
         transform="matrix(1.0629921,0,0,-1.0629921,-186.02362,789.27165)"
         id="g8711"
         style="font-style:normal;font-variant:normal;font-weight:normal;font-stretch:normal;letter-spacing:normal;word-spacing:normal;text-anchor:start;fill:none;fill-opacity:1;fill-rule:evenodd;stroke:#000000;stroke-linecap:butt;stroke-linejoin:miter;stroke-miterlimit:10.43299961;stroke-dasharray:none;stroke-dashoffset:0;stroke-opacity:1"><polygon
           id="polygon8713"
           points="457.91,406.2 462.3,410.78 472,432.7 481.63,410.78 462.3,410.78 457.91,406.2 489.14,406.2 473.8,439.78 472.8,439.78 "
           style="fill:#0000ff;fill-opacity:1;stroke-width:0" /><path
           id="path8715"
           d="m 528.08,422.59 -15.59,0 -0.19,-0.8 0.94,0 c 3.04,0 3.73,-0.75 3.73,-1.84 0,-0.34 -0.04,-0.84 -0.14,-1.25 l -2.84,-10.02 c -1.34,-0.84 -2.8,-1.23 -4.83,-1.23 -7.33,0 -9.02,4.83 -9.02,8.91 0,8.92 4.43,21.28 15.85,21.28 5.62,0 7.97,-4.03 7.97,-7.68 0,-0.54 -0.05,-1.09 -0.11,-1.59 l 0.8,0 2.25,11.11 -0.8,0 c -0.16,-0.8 -1.05,-1.84 -2.14,-1.84 -1.1,0 -2.05,0.75 -3.14,1.04 -1.1,0.35 -2.69,0.8 -5.14,0.8 -12.6,0 -21.68,-10.77 -21.68,-21.22 0,-8.92 6.74,-12.65 14.55,-12.65 3.14,0 6.89,0 10.81,2.34 l 3.1,10.75 c 0.5,1.8 1.39,3.09 5.62,3.09 z"
           inkscape:connector-curvature="0"
           style="fill:#0000ff;fill-opacity:1;stroke-width:0" /><path
           id="path8717"
           d="m 546.83,435.91 -0.01,0.71 -0.03,0.7 -0.05,0.68 -0.07,0.66 -0.08,0.65 -0.11,0.63 -0.12,0.62 -0.14,0.59 -0.15,0.58 -0.18,0.56 -0.19,0.54 -0.2,0.52 -0.22,0.5 -0.24,0.48 -0.25,0.46 -0.27,0.43 -0.28,0.42 -0.29,0.39 -0.31,0.37 -0.32,0.34 -0.34,0.32 -0.35,0.29 -0.35,0.27 -0.38,0.25 -0.38,0.21 -0.39,0.19 -0.41,0.16 -0.41,0.13 -0.43,0.11 -0.43,0.07 -0.45,0.05 -0.45,0.01 c -6,0 -8.58,-6.07 -8.58,-12.67 0,-6.12 2.06,-13.04 8.44,-13.04 l 0,0.96 c -3.22,0 -4.86,4.25 -4.86,11.82 0,7.58 1.68,11.97 4.78,11.97 3.28,0 4.92,-4.36 4.92,-12.11 l 0,0 c 0,-7.39 -1.69,-11.68 -4.84,-11.68 l 0,-0.96 c 6.07,0 8.42,6.4 8.42,12.82 z"
           inkscape:connector-curvature="0"
           style="fill:#0000ff;fill-opacity:1;stroke-width:0" /><path
           id="path8719"
           d="m 565.34,398.18 -0.64,0.55 -0.6,0.55 -0.58,0.54 -0.54,0.55 -0.52,0.55 -0.49,0.55 -0.46,0.55 -0.43,0.56 -0.41,0.56 -0.38,0.57 -0.36,0.57 -0.33,0.58 -0.31,0.58 -0.29,0.6 -0.26,0.6 -0.25,0.61 -0.22,0.63 -0.21,0.63 -0.18,0.64 -0.17,0.66 -0.15,0.67 -0.13,0.69 -0.11,0.69 -0.11,0.72 -0.08,0.72 -0.07,0.75 -0.06,0.76 -0.05,0.78 -0.04,0.8 -0.02,0.82 -0.01,0.83 -0.01,0.86 c 0,9.61 1.55,14.25 8.47,20.17 l -0.44,0.8 c -7.98,-4.72 -12.31,-11.91 -12.31,-21.11 0,-8.48 4.28,-16.89 12.16,-21.37 z"
           inkscape:connector-curvature="0"
           style="fill:#0000ff;fill-opacity:1;stroke-width:0" /><path
           id="path8721"
           d="m 582.45,406.2 0,0.95 c -4.08,0.14 -4.88,0.89 -4.88,4.63 l 0,21.87 c 0,3.78 0.7,4.38 4.88,4.58 l 0,0.95 -14.8,0 0,-0.95 c 4.23,-0.25 4.84,-0.64 4.84,-4.58 l 0,-21.87 c 0,-3.89 -0.65,-4.49 -4.84,-4.63 l 0,-0.95 z"
           inkscape:connector-curvature="0"
           style="fill:#0000ff;fill-opacity:1;stroke-width:0" /><path
           id="path8723"
           d="m 599,406.2 0,0.95 c -4.07,0.14 -4.87,0.89 -4.87,4.63 l 0,21.87 c 0,3.78 0.7,4.38 4.87,4.58 l 0,0.95 -14.79,0 0,-0.95 c 4.23,-0.25 4.84,-0.64 4.84,-4.58 l 0,-21.87 c 0,-3.89 -0.65,-4.49 -4.84,-4.63 l 0,-0.95 z"
           inkscape:connector-curvature="0"
           style="fill:#0000ff;fill-opacity:1;stroke-width:0" /><path
           id="path8725"
           d="m 601.43,439.07 0.66,-0.53 0.63,-0.53 0.59,-0.54 0.57,-0.53 0.52,-0.54 0.5,-0.55 0.47,-0.54 0.44,-0.56 0.41,-0.55 0.39,-0.57 0.36,-0.57 0.33,-0.58 0.31,-0.59 0.28,-0.59 0.26,-0.61 0.24,-0.61 0.22,-0.63 0.19,-0.63 0.18,-0.65 0.16,-0.66 0.14,-0.68 0.13,-0.69 0.11,-0.7 0.09,-0.72 0.08,-0.73 0.06,-0.75 0.06,-0.77 0.04,-0.78 0.03,-0.81 0.02,-0.82 0.01,-0.84 0.01,-0.86 c 0,-9.68 -1.41,-14.35 -8.49,-20.18 l 0.46,-0.79 c 7.92,4.82 12.31,11.9 12.31,21.12 0,8.47 -4.53,16.78 -12.16,21.36 z"
           inkscape:connector-curvature="0"
           style="fill:#0000ff;fill-opacity:1;stroke-width:0" /></g>    </g>
    <g
       id="g8937"
       transform="matrix(0.35683676,0,0,0.35683676,20.098989,442.81831)">
      <g
         id="g8939"
         transform="matrix(1.0629921,0,0,-1.0629921,-186.02362,789.27165)"
         xml:space="preserve"
         stroke-miterlimit="10.433"
         font-style="normal"
         font-variant="normal"
         font-weight="normal"
         font-stretch="normal"
         font-size-adjust="none"
         letter-spacing="normal"
         word-spacing="normal"
         style="font-style:normal;font-variant:normal;font-weight:normal;font-stretch:normal;letter-spacing:normal;word-spacing:normal;text-anchor:start;fill:none;fill-opacity:1;fill-rule:evenodd;stroke:#000000;stroke-linecap:butt;stroke-linejoin:miter;stroke-miterlimit:10.43299961;stroke-dasharray:none;stroke-dashoffset:0;stroke-opacity:1"><polygon
           points="472.8,439.78 457.91,406.2 462.3,410.78 472,432.7 481.63,410.78 462.3,410.78 457.91,406.2 489.14,406.2 473.8,439.78 "
           id="polygon8941"
           style="fill:#000000;stroke-width:0" /><path
           d="m 528.08,422.59 -15.59,0 -0.19,-0.8 0.94,0 c 3.04,0 3.73,-0.75 3.73,-1.84 0,-0.34 -0.04,-0.84 -0.14,-1.25 l -2.84,-10.02 c -1.34,-0.84 -2.8,-1.23 -4.83,-1.23 -7.33,0 -9.02,4.83 -9.02,8.91 0,8.92 4.43,21.28 15.85,21.28 5.62,0 7.97,-4.03 7.97,-7.68 0,-0.54 -0.05,-1.09 -0.11,-1.59 l 0.8,0 2.25,11.11 -0.8,0 c -0.16,-0.8 -1.05,-1.84 -2.14,-1.84 -1.1,0 -2.05,0.75 -3.14,1.04 -1.1,0.35 -2.69,0.8 -5.14,0.8 -12.6,0 -21.68,-10.77 -21.68,-21.22 0,-8.92 6.74,-12.65 14.55,-12.65 3.14,0 6.89,0 10.81,2.34 l 3.1,10.75 c 0.5,1.8 1.39,3.09 5.62,3.09 z"
           id="path8943"
           inkscape:connector-curvature="0"
           style="fill:#000000;stroke-width:0" /><path
           d="m 546.83,436.75 -0.01,0.71 -0.03,0.7 -0.05,0.68 -0.07,0.66 -0.08,0.65 -0.11,0.63 -0.12,0.62 -0.14,0.59 -0.15,0.58 -0.18,0.56 -0.19,0.54 -0.2,0.52 -0.22,0.5 -0.24,0.48 -0.25,0.46 -0.27,0.43 -0.28,0.42 -0.29,0.39 -0.31,0.37 -0.32,0.34 -0.34,0.32 -0.35,0.29 -0.35,0.27 -0.38,0.25 -0.38,0.21 -0.39,0.19 -0.41,0.16 -0.41,0.13 -0.43,0.11 -0.43,0.07 -0.45,0.05 -0.45,0.01 c -6,0 -8.58,-6.07 -8.58,-12.67 0,-6.12 2.06,-13.04 8.44,-13.04 l 0,0.96 c -3.22,0 -4.86,4.25 -4.86,11.82 0,7.58 1.68,11.97 4.78,11.97 3.28,0 4.92,-4.36 4.92,-12.11 l 0,0 c 0,-7.39 -1.69,-11.68 -4.84,-11.68 l 0,-0.96 c 6.07,0 8.42,6.4 8.42,12.82 z"
           id="path8945"
           inkscape:connector-curvature="0"
           style="fill:#000000;stroke-width:0" /><path
           d="m 538.04,391.68 -0.07,-0.09 -0.08,-0.09 -0.07,-0.08 -0.08,-0.08 -0.07,-0.07 -0.07,-0.07 -0.07,-0.07 -0.07,-0.07 -0.07,-0.06 -0.07,-0.06 -0.07,-0.05 -0.06,-0.06 -0.07,-0.04 -0.07,-0.05 -0.06,-0.04 -0.07,-0.04 -0.07,-0.04 -0.06,-0.04 -0.07,-0.03 -0.07,-0.03 -0.06,-0.02 -0.07,-0.03 -0.07,-0.02 -0.07,-0.02 -0.06,-0.01 -0.07,-0.02 -0.07,-0.01 -0.08,-0.01 -0.07,-0.01 -0.07,0 -0.08,-0.01 -0.07,0 c -1.39,0 -1.94,0.97 -1.94,3.36 l 0,10.67 3.77,0 0,1.19 -3.77,0 0,4.33 c 0,0.38 -0.08,0.48 -0.27,0.48 -0.21,-0.37 -0.53,-0.71 -0.75,-1.04 -1.42,-2.05 -2.63,-3.44 -3.6,-3.99 -0.43,-0.26 -0.65,-0.48 -0.65,-0.72 0,-0.1 0.04,-0.18 0.16,-0.25 l 1.97,0 0,-11.23 c 0,-3.12 1.12,-4.73 3.28,-4.73 1.86,0 3.28,0.89 4.52,2.84 z"
           id="path8947"
           inkscape:connector-curvature="0"
           style="fill:#000000;stroke-width:0" /><path
           d="m 565.34,398.18 -0.64,0.55 -0.6,0.55 -0.58,0.54 -0.54,0.55 -0.52,0.55 -0.49,0.55 -0.46,0.55 -0.43,0.56 -0.41,0.56 -0.38,0.57 -0.36,0.57 -0.33,0.58 -0.31,0.58 -0.29,0.6 -0.26,0.6 -0.25,0.61 -0.22,0.63 -0.21,0.63 -0.18,0.64 -0.17,0.66 -0.15,0.67 -0.13,0.69 -0.11,0.69 -0.11,0.72 -0.08,0.72 -0.07,0.75 -0.06,0.76 -0.05,0.78 -0.04,0.8 -0.02,0.82 -0.01,0.83 -0.01,0.86 c 0,9.61 1.55,14.25 8.47,20.17 l -0.44,0.8 c -7.98,-4.72 -12.31,-11.91 -12.31,-21.11 0,-8.48 4.28,-16.89 12.16,-21.37 z"
           id="path8949"
           inkscape:connector-curvature="0"
           style="fill:#000000;stroke-width:0" /><path
           d="m 601.98,406.2 0,0.95 c -2.58,0.3 -3.28,1.35 -4.68,4.58 l -12.26,28.05 -1,0 -10.25,-24.32 c -2.95,-6.96 -3.39,-8.01 -6.28,-8.31 l 0,-0.95 9.9,0 0,0.95 c -2.39,0 -3.48,0.49 -3.48,2.03 0,0.61 0.2,1.46 0.45,2.1 l 2.3,5.68 13.05,0 -0.71,2.04 -11.5,0 5.72,13.7 5.78,-13.7 0.71,-2.04 2.04,-4.68 c 0.6,-1.39 0.94,-2.74 0.94,-3.49 0,-0.45 -0.3,-1 -0.69,-1.2 -0.61,-0.34 -0.95,-0.44 -2.75,-0.44 l 0,-0.95 z"
           id="path8951"
           inkscape:connector-curvature="0"
           style="fill:#000000;stroke-width:0" /><path
           d="m 606.9,399.17 0.32,0.16 0.31,0.17 0.3,0.17 0.29,0.19 0.29,0.19 0.28,0.2 0.27,0.2 0.26,0.21 0.25,0.22 0.25,0.23 0.23,0.23 0.22,0.23 0.22,0.24 0.2,0.25 0.2,0.25 0.19,0.25 0.17,0.26 0.17,0.26 0.15,0.26 0.15,0.27 0.13,0.27 0.13,0.28 0.11,0.27 0.1,0.28 0.09,0.28 0.08,0.27 0.06,0.29 0.06,0.28 0.04,0.28 0.03,0.28 0.02,0.28 0.01,0.28 c 0,2.59 -1.75,4.33 -3.99,4.33 -1.79,0 -3,-1.14 -3,-2.85 0,-1.68 1.05,-2.53 2.89,-2.53 0.55,0 1.05,0.21 1.46,0.21 0.39,0 0.68,-0.32 0.68,-0.66 0,-1.64 -1.39,-3.49 -4.12,-5.33 z"
           id="path8953"
           inkscape:connector-curvature="0"
           style="fill:#000000;stroke-width:0" /><path
           d="m 639.2,406.2 0,0.95 c -4.08,0.14 -4.87,0.89 -4.87,4.63 l 0,21.87 c 0,3.78 0.7,4.38 4.87,4.58 l 0,0.95 -14.79,0 0,-0.95 c 4.23,-0.25 4.84,-0.64 4.84,-4.58 l 0,-21.87 c 0,-3.89 -0.66,-4.49 -4.84,-4.63 l 0,-0.95 z"
           id="path8955"
           inkscape:connector-curvature="0"
           style="fill:#000000;stroke-width:0" /><path
           d="m 696.63,419.06 -0.44,0.19 -0.44,0.2 -0.86,0.43 -0.84,0.47 -0.82,0.5 -0.8,0.53 -0.78,0.56 -0.76,0.58 -0.74,0.61 -0.72,0.63 -0.7,0.64 -0.69,0.66 -0.67,0.68 -0.65,0.68 -0.64,0.69 -0.63,0.7 -0.61,0.7 -1,-0.94 c 1.09,-1.64 2.64,-3.39 4.07,-4.78 0.5,-0.5 0.71,-0.79 0.71,-1.25 0,-0.5 -0.8,-1.09 -1.3,-1.09 l -29.84,0 0,-3.3 29.79,0 c 0.89,0 1.3,-0.48 1.3,-0.98 0,-0.41 -0.25,-0.96 -0.7,-1.41 -1.49,-1.53 -2.94,-3.12 -4.08,-4.78 l 1,-0.94 c 3.28,3.78 7.06,7.47 11.84,9.52 z"
           id="path8957"
           inkscape:connector-curvature="0"
           style="fill:#000000;stroke-width:0" /><path
           d="m 729.68,406.2 0,0.95 c -4.08,0.14 -4.88,0.89 -4.88,4.63 l 0,21.87 c 0,3.78 0.71,4.38 4.88,4.58 l 0,0.95 -14.8,0 0,-0.95 c 4.24,-0.25 4.85,-0.64 4.85,-4.58 l 0,-21.87 c 0,-3.89 -0.66,-4.49 -4.85,-4.63 l 0,-0.95 z"
           id="path8959"
           inkscape:connector-curvature="0"
           style="fill:#000000;stroke-width:0" /><path
           d="m 746.24,406.2 0,0.95 c -4.08,0.14 -4.88,0.89 -4.88,4.63 l 0,21.87 c 0,3.78 0.71,4.38 4.88,4.58 l 0,0.95 -14.8,0 0,-0.95 c 4.24,-0.25 4.84,-0.64 4.84,-4.58 l 0,-21.87 c 0,-3.89 -0.65,-4.49 -4.84,-4.63 l 0,-0.95 z"
           id="path8961"
           inkscape:connector-curvature="0"
           style="fill:#000000;stroke-width:0" /><path
           d="m 748.55,439.07 0.66,-0.53 0.62,-0.53 0.6,-0.54 0.56,-0.53 0.53,-0.54 0.5,-0.55 0.46,-0.54 0.44,-0.56 0.42,-0.55 0.38,-0.57 0.36,-0.57 0.33,-0.58 0.31,-0.59 0.28,-0.59 0.26,-0.61 0.24,-0.61 0.22,-0.63 0.2,-0.63 0.17,-0.65 0.16,-0.66 0.15,-0.68 0.12,-0.69 0.11,-0.7 0.09,-0.72 0.08,-0.73 0.07,-0.75 0.05,-0.77 0.04,-0.78 0.03,-0.81 0.03,-0.82 0.01,-0.84 0,-0.86 c 0,-9.68 -1.41,-14.35 -8.48,-20.18 l 0.45,-0.79 c 7.92,4.82 12.31,11.9 12.31,21.12 0,8.47 -4.53,16.78 -12.15,21.36 z"
           id="path8963"
           inkscape:connector-curvature="0"
           style="fill:#000000;stroke-width:0" /></g>    </g>
    <g
       id="g9203"
       transform="matrix(0.35873455,0,0,0.35683676,244.53655,524.08815)">
      <g
         word-spacing="normal"
         letter-spacing="normal"
         font-size-adjust="none"
         font-stretch="normal"
         font-weight="normal"
         font-variant="normal"
         font-style="normal"
         stroke-miterlimit="10.433"
         xml:space="preserve"
         transform="matrix(1.0629921,0,0,-1.0629921,-186.02362,789.27165)"
         id="g9205"
         style="font-style:normal;font-variant:normal;font-weight:normal;font-stretch:normal;letter-spacing:normal;word-spacing:normal;text-anchor:start;fill:none;fill-opacity:1;fill-rule:evenodd;stroke:#000000;stroke-linecap:butt;stroke-linejoin:miter;stroke-miterlimit:10.43299961;stroke-dasharray:none;stroke-dashoffset:0;stroke-opacity:1"><polygon
           id="polygon9207"
           points="472.8,439.78 457.91,406.2 462.3,410.78 472,432.7 481.63,410.78 462.3,410.78 457.91,406.2 489.14,406.2 473.8,439.78 "
           style="fill:#000000;stroke-width:0" /><path
           id="path9209"
           d="m 528.08,422.59 -15.59,0 -0.19,-0.8 0.94,0 c 3.04,0 3.73,-0.75 3.73,-1.84 0,-0.34 -0.04,-0.84 -0.14,-1.25 l -2.84,-10.02 c -1.34,-0.84 -2.8,-1.23 -4.83,-1.23 -7.33,0 -9.02,4.83 -9.02,8.91 0,8.92 4.43,21.28 15.85,21.28 5.62,0 7.97,-4.03 7.97,-7.68 0,-0.54 -0.05,-1.09 -0.11,-1.59 l 0.8,0 2.25,11.11 -0.8,0 c -0.16,-0.8 -1.05,-1.84 -2.14,-1.84 -1.1,0 -2.05,0.75 -3.14,1.04 -1.1,0.35 -2.69,0.8 -5.14,0.8 -12.6,0 -21.68,-10.77 -21.68,-21.22 0,-8.92 6.74,-12.65 14.55,-12.65 3.14,0 6.89,0 10.81,2.34 l 3.1,10.75 c 0.5,1.8 1.39,3.09 5.62,3.09 z"
           inkscape:connector-curvature="0"
           style="fill:#000000;stroke-width:0" /><path
           id="path9211"
           d="m 546.83,436.75 -0.01,0.71 -0.03,0.7 -0.05,0.68 -0.07,0.66 -0.08,0.65 -0.11,0.63 -0.12,0.62 -0.14,0.59 -0.15,0.58 -0.18,0.56 -0.19,0.54 -0.2,0.52 -0.22,0.5 -0.24,0.48 -0.25,0.46 -0.27,0.43 -0.28,0.42 -0.29,0.39 -0.31,0.37 -0.32,0.34 -0.34,0.32 -0.35,0.29 -0.35,0.27 -0.38,0.25 -0.38,0.21 -0.39,0.19 -0.41,0.16 -0.41,0.13 -0.43,0.11 -0.43,0.07 -0.45,0.05 -0.45,0.01 c -6,0 -8.58,-6.07 -8.58,-12.67 0,-6.12 2.06,-13.04 8.44,-13.04 l 0,0.96 c -3.22,0 -4.86,4.25 -4.86,11.82 0,7.58 1.68,11.97 4.78,11.97 3.28,0 4.92,-4.36 4.92,-12.11 l 0,0 c 0,-7.39 -1.69,-11.68 -4.84,-11.68 l 0,-0.96 c 6.07,0 8.42,6.4 8.42,12.82 z"
           inkscape:connector-curvature="0"
           style="fill:#000000;stroke-width:0" /><path
           id="path9213"
           d="m 538.04,391.68 -0.07,-0.09 -0.08,-0.09 -0.07,-0.08 -0.08,-0.08 -0.07,-0.07 -0.07,-0.07 -0.07,-0.07 -0.07,-0.07 -0.07,-0.06 -0.07,-0.06 -0.07,-0.05 -0.06,-0.06 -0.07,-0.04 -0.07,-0.05 -0.06,-0.04 -0.07,-0.04 -0.07,-0.04 -0.06,-0.04 -0.07,-0.03 -0.07,-0.03 -0.06,-0.02 -0.07,-0.03 -0.07,-0.02 -0.07,-0.02 -0.06,-0.01 -0.07,-0.02 -0.07,-0.01 -0.08,-0.01 -0.07,-0.01 -0.07,0 -0.08,-0.01 -0.07,0 c -1.39,0 -1.94,0.97 -1.94,3.36 l 0,10.67 3.77,0 0,1.19 -3.77,0 0,4.33 c 0,0.38 -0.08,0.48 -0.27,0.48 -0.21,-0.37 -0.53,-0.71 -0.75,-1.04 -1.42,-2.05 -2.63,-3.44 -3.6,-3.99 -0.43,-0.26 -0.65,-0.48 -0.65,-0.72 0,-0.1 0.04,-0.18 0.16,-0.25 l 1.97,0 0,-11.23 c 0,-3.12 1.12,-4.73 3.28,-4.73 1.86,0 3.28,0.89 4.52,2.84 z"
           inkscape:connector-curvature="0"
           style="fill:#000000;stroke-width:0" /><path
           id="path9215"
           d="m 565.34,398.18 -0.64,0.55 -0.6,0.55 -0.58,0.54 -0.54,0.55 -0.52,0.55 -0.49,0.55 -0.46,0.55 -0.43,0.56 -0.41,0.56 -0.38,0.57 -0.36,0.57 -0.33,0.58 -0.31,0.58 -0.29,0.6 -0.26,0.6 -0.25,0.61 -0.22,0.63 -0.21,0.63 -0.18,0.64 -0.17,0.66 -0.15,0.67 -0.13,0.69 -0.11,0.69 -0.11,0.72 -0.08,0.72 -0.07,0.75 -0.06,0.76 -0.05,0.78 -0.04,0.8 -0.02,0.82 -0.01,0.83 -0.01,0.86 c 0,9.61 1.55,14.25 8.47,20.17 l -0.44,0.8 c -7.98,-4.72 -12.31,-11.91 -12.31,-21.11 0,-8.48 4.28,-16.89 12.16,-21.37 z"
           inkscape:connector-curvature="0"
           style="fill:#000000;stroke-width:0" /><path
           id="path9217"
           d="m 587.79,423.59 0.24,0.06 0.22,0.06 0.22,0.05 0.22,0.06 0.2,0.06 0.19,0.05 0.19,0.06 0.18,0.05 0.18,0.05 0.17,0.06 0.16,0.05 0.16,0.06 0.15,0.05 0.15,0.06 0.14,0.06 0.14,0.05 0.13,0.06 0.13,0.06 0.25,0.13 0.24,0.13 0.23,0.15 0.22,0.15 0.22,0.16 0.23,0.17 0.11,0.1 0.11,0.09 c 1.23,1.1 2.03,3.14 2.03,5.18 0,5.28 -4.42,8.32 -13.05,8.32 l -0.84,-1.84 c 5.92,0 8.81,-2.55 8.81,-6.73 0,-4.13 -2.43,-6.18 -7.47,-6.18 l -4.57,0 0,-2 c 5.87,-0.18 7.76,0 10.75,-1.98 1.64,-1.09 2.34,-2.94 2.34,-5.33 0,-2.14 -0.64,-3.84 -1.89,-4.94 -2.19,-1.93 -3.94,-2.14 -8.13,-2.14 -2.28,0 -3.07,0.55 -3.07,2.24 l 0,12.15 0,2 0,11.32 c 0,1.14 0.34,1.59 1.18,1.59 l 2.05,0 0.84,1.84 -13.95,0 0,-0.95 c 4.03,-0.25 4.78,-0.69 4.78,-4.62 l 0,-21.79 c 0,-3.78 -0.84,-4.57 -4.78,-4.67 l 0,-0.95 16.8,0 c 7.22,0 11.9,3.34 11.9,8.87 0,2.19 -0.84,4.29 -2.43,5.72 -1.46,1.3 -2.8,2.21 -6.08,2.75 z"
           inkscape:connector-curvature="0"
           style="fill:#000000;stroke-width:0" /><path
           id="path9219"
           d="m 604.14,399.17 0.32,0.16 0.31,0.17 0.3,0.17 0.29,0.19 0.29,0.19 0.28,0.2 0.27,0.2 0.26,0.21 0.25,0.22 0.24,0.23 0.24,0.23 0.22,0.23 0.22,0.24 0.2,0.25 0.2,0.25 0.18,0.25 0.18,0.26 0.17,0.26 0.15,0.26 0.15,0.27 0.13,0.27 0.12,0.28 0.12,0.27 0.1,0.28 0.09,0.28 0.07,0.27 0.07,0.29 0.06,0.28 0.04,0.28 0.03,0.28 0.02,0.28 0.01,0.28 c 0,2.59 -1.75,4.33 -3.99,4.33 -1.8,0 -3,-1.14 -3,-2.85 0,-1.68 1.05,-2.53 2.89,-2.53 0.55,0 1.05,0.21 1.45,0.21 0.4,0 0.69,-0.32 0.69,-0.66 0,-1.64 -1.39,-3.49 -4.12,-5.33 z"
           inkscape:connector-curvature="0"
           style="fill:#000000;stroke-width:0" /><path
           id="path9221"
           d="m 636.44,406.2 0,0.95 c -4.08,0.14 -4.87,0.89 -4.87,4.63 l 0,21.87 c 0,3.78 0.7,4.38 4.87,4.58 l 0,0.95 -14.79,0 0,-0.95 c 4.23,-0.25 4.84,-0.64 4.84,-4.58 l 0,-21.87 c 0,-3.89 -0.66,-4.49 -4.84,-4.63 l 0,-0.95 z"
           inkscape:connector-curvature="0"
           style="fill:#000000;stroke-width:0" /><path
           id="path9223"
           d="m 693.87,419.06 -0.44,0.19 -0.44,0.2 -0.87,0.43 -0.84,0.47 -0.81,0.5 -0.8,0.53 -0.78,0.56 -0.76,0.58 -0.74,0.61 -0.72,0.63 -0.7,0.64 -0.69,0.66 -0.67,0.68 -0.66,0.68 -0.64,0.69 -0.62,0.7 -0.62,0.7 -1,-0.94 c 1.1,-1.64 2.65,-3.39 4.08,-4.78 0.5,-0.5 0.7,-0.79 0.7,-1.25 0,-0.5 -0.79,-1.09 -1.29,-1.09 l -29.84,0 0,-3.3 29.79,0 c 0.89,0 1.3,-0.48 1.3,-0.98 0,-0.41 -0.25,-0.96 -0.71,-1.41 -1.48,-1.53 -2.93,-3.12 -4.07,-4.78 l 1,-0.94 c 3.28,3.78 7.06,7.47 11.84,9.52 z"
           inkscape:connector-curvature="0"
           style="fill:#000000;stroke-width:0" /><path
           id="path9225"
           d="m 726.92,406.2 0,0.95 c -4.08,0.14 -4.88,0.89 -4.88,4.63 l 0,21.87 c 0,3.78 0.71,4.38 4.88,4.58 l 0,0.95 -14.8,0 0,-0.95 c 4.23,-0.25 4.85,-0.64 4.85,-4.58 l 0,-21.87 c 0,-3.89 -0.66,-4.49 -4.85,-4.63 l 0,-0.95 z"
           inkscape:connector-curvature="0"
           style="fill:#000000;stroke-width:0" /><path
           id="path9227"
           d="m 743.48,406.2 0,0.95 c -4.08,0.14 -4.88,0.89 -4.88,4.63 l 0,21.87 c 0,3.78 0.7,4.38 4.88,4.58 l 0,0.95 -14.8,0 0,-0.95 c 4.23,-0.25 4.84,-0.64 4.84,-4.58 l 0,-21.87 c 0,-3.89 -0.65,-4.49 -4.84,-4.63 l 0,-0.95 z"
           inkscape:connector-curvature="0"
           style="fill:#000000;stroke-width:0" /><path
           id="path9229"
           d="m 745.78,439.07 0.67,-0.53 0.62,-0.53 0.6,-0.54 0.56,-0.53 0.53,-0.54 0.49,-0.55 0.47,-0.54 0.44,-0.56 0.41,-0.55 0.39,-0.57 0.36,-0.57 0.33,-0.58 0.31,-0.59 0.28,-0.59 0.26,-0.61 0.24,-0.61 0.22,-0.63 0.2,-0.63 0.17,-0.65 0.16,-0.66 0.14,-0.68 0.13,-0.69 0.11,-0.7 0.09,-0.72 0.08,-0.73 0.07,-0.75 0.05,-0.77 0.04,-0.78 0.03,-0.81 0.02,-0.82 0.02,-0.84 0,-0.86 c 0,-9.68 -1.41,-14.35 -8.49,-20.18 l 0.46,-0.79 c 7.92,4.82 12.31,11.9 12.31,21.12 0,8.47 -4.53,16.78 -12.15,21.36 z"
           inkscape:connector-curvature="0"
           style="fill:#000000;stroke-width:0" /></g>    </g>
  </g>
  <g
     inkscape:groupmode="layer"
     id="layer2"
     inkscape:label="dashed-lines"
     style="display:none"
     transform="translate(-75.826883,-368.74731)">
    <path
       inkscape:connector-curvature="0"
       id="path4450"
       d="m 172.85004,686.22195 356.61691,1.21299"
       style="display:inline;fill:none;fill-rule:evenodd;stroke:#000000;stroke-width:1;stroke-linecap:butt;stroke-linejoin:miter;stroke-miterlimit:4;stroke-dasharray:3, 1;stroke-dashoffset:0;stroke-opacity:1" />
  </g>
</svg>
