<?xml version="1.0" encoding="UTF-8" standalone="no"?>
<!-- Created with Inkscape (http://www.inkscape.org/) -->

<svg
   xmlns:dc="http://purl.org/dc/elements/1.1/"
   xmlns:cc="http://creativecommons.org/ns#"
   xmlns:rdf="http://www.w3.org/1999/02/22-rdf-syntax-ns#"
   xmlns:svg="http://www.w3.org/2000/svg"
   xmlns="http://www.w3.org/2000/svg"
   xmlns:sodipodi="http://sodipodi.sourceforge.net/DTD/sodipodi-0.dtd"
   xmlns:inkscape="http://www.inkscape.org/namespaces/inkscape"
   width="99.219711mm"
   height="94.99765mm"
   viewBox="0 0 351.56591 336.60585"
   id="svg2"
   version="1.1"
   inkscape:version="0.91 r13725"
   sodipodi:docname="kinetics.svg">
  <sodipodi:namedview
     id="base"
     pagecolor="#ffffff"
     bordercolor="#666666"
     borderopacity="1.0"
     inkscape:pageopacity="0.0"
     inkscape:pageshadow="2"
     inkscape:zoom="2.34"
     inkscape:cx="146.29092"
     inkscape:cy="153.86822"
     inkscape:document-units="px"
     inkscape:current-layer="layer1"
     showgrid="false"
     inkscape:window-width="2560"
     inkscape:window-height="1376"
     inkscape:window-x="0"
     inkscape:window-y="27"
     inkscape:window-maximized="1"
     fit-margin-top="0"
     fit-margin-left="0"
     fit-margin-right="0"
     fit-margin-bottom="0" />
  <defs
     id="defs4">
    <marker
       inkscape:collect="always"
       inkscape:isstock="true"
       style="overflow:visible"
       id="Arrow1Lend"
       refX="0"
       refY="0"
       orient="auto"
       inkscape:stockid="Arrow1Lend">
      <path
         inkscape:connector-curvature="0"
         transform="matrix(-0.8,0,0,-0.8,-10,0)"
         style="fill:#000000;fill-opacity:1;fill-rule:evenodd;stroke:#000000;stroke-width:1pt;stroke-opacity:1"
         d="M 0,0 5,-5 -12.5,0 5,5 0,0 Z"
         id="path4145" />
    </marker>
    <marker
       inkscape:stockid="Arrow2Mstart"
       orient="auto"
       refY="0"
       refX="0"
       id="marker6798"
       style="overflow:visible"
       inkscape:isstock="true">
      <path
         inkscape:connector-curvature="0"
         id="path6800"
         style="fill:#0000ff;fill-opacity:1;fill-rule:evenodd;stroke:#0000ff;stroke-width:0.625;stroke-linejoin:round;stroke-opacity:1"
         d="M 8.7185878,4.0337352 -2.2072895,0.01601326 8.7185884,-4.0017078 c -1.7454984,2.3720609 -1.7354408,5.6174519 -6e-7,8.035443 z"
         transform="scale(0.6,0.6)" />
    </marker>
    <marker
       inkscape:stockid="Arrow2Mend"
       orient="auto"
       refY="0"
       refX="0"
       id="marker7092"
       style="overflow:visible"
       inkscape:isstock="true">
      <path
         inkscape:connector-curvature="0"
         id="path7094"
         style="fill:#0000ff;fill-opacity:1;fill-rule:evenodd;stroke:#0000ff;stroke-width:0.625;stroke-linejoin:round;stroke-opacity:1"
         d="M 8.7185878,4.0337352 -2.2072895,0.01601326 8.7185884,-4.0017078 c -1.7454984,2.3720609 -1.7354408,5.6174519 -6e-7,8.035443 z"
         transform="scale(-0.6,-0.6)" />
    </marker>
    <marker
       inkscape:collect="always"
       inkscape:isstock="true"
       style="overflow:visible"
       id="Arrow1Mstart"
       refX="0"
       refY="0"
       orient="auto"
       inkscape:stockid="Arrow1Mstart">
      <path
         inkscape:connector-curvature="0"
         transform="matrix(0.4,0,0,0.4,4,0)"
         style="fill:#ff0000;fill-opacity:1;fill-rule:evenodd;stroke:#ff0000;stroke-width:1pt;stroke-opacity:1"
         d="M 0,0 5,-5 -12.5,0 5,5 0,0 Z"
         id="path4148" />
    </marker>
    <marker
       inkscape:collect="always"
       inkscape:isstock="true"
       style="overflow:visible"
       id="Arrow1Mend"
       refX="0"
       refY="0"
       orient="auto"
       inkscape:stockid="Arrow1Mend">
      <path
         inkscape:connector-curvature="0"
         transform="matrix(-0.4,0,0,-0.4,-4,0)"
         style="fill:#ff0000;fill-opacity:1;fill-rule:evenodd;stroke:#ff0000;stroke-width:1pt;stroke-opacity:1"
         d="M 0,0 5,-5 -12.5,0 5,5 0,0 Z"
         id="path4151" />
    </marker>
    <marker
       inkscape:collect="always"
       inkscape:isstock="true"
       style="overflow:visible"
       id="Arrow1Mstart-6"
       refX="0"
       refY="0"
       orient="auto"
       inkscape:stockid="Arrow1Mstart">
      <path
         inkscape:connector-curvature="0"
         transform="matrix(0.4,0,0,0.4,4,0)"
         style="fill:#ff0000;fill-opacity:1;fill-rule:evenodd;stroke:#ff0000;stroke-width:1pt;stroke-opacity:1"
         d="M 0,0 5,-5 -12.5,0 5,5 0,0 Z"
         id="path4148-7" />
    </marker>
    <marker
       inkscape:collect="always"
       inkscape:isstock="true"
       style="overflow:visible"
       id="Arrow1Mend-5"
       refX="0"
       refY="0"
       orient="auto"
       inkscape:stockid="Arrow1Mend">
      <path
         inkscape:connector-curvature="0"
         transform="matrix(-0.4,0,0,-0.4,-4,0)"
         style="fill:#ff0000;fill-opacity:1;fill-rule:evenodd;stroke:#ff0000;stroke-width:1pt;stroke-opacity:1"
         d="M 0,0 5,-5 -12.5,0 5,5 0,0 Z"
         id="path4151-3" />
    </marker>
    <marker
       inkscape:stockid="Arrow2Mstart"
       orient="auto"
       refY="0"
       refX="0"
       id="marker6798-6"
       style="overflow:visible"
       inkscape:isstock="true">
      <path
         inkscape:connector-curvature="0"
         id="path6800-2"
         style="fill:#0000ff;fill-opacity:1;fill-rule:evenodd;stroke:#0000ff;stroke-width:0.625;stroke-linejoin:round;stroke-opacity:1"
         d="M 8.7185878,4.0337352 -2.2072895,0.01601326 8.7185884,-4.0017078 c -1.7454984,2.3720609 -1.7354408,5.6174519 -6e-7,8.035443 z"
         transform="scale(0.6,0.6)" />
    </marker>
    <marker
       inkscape:stockid="Arrow2Mend"
       orient="auto"
       refY="0"
       refX="0"
       id="marker7092-9"
       style="overflow:visible"
       inkscape:isstock="true">
      <path
         inkscape:connector-curvature="0"
         id="path7094-1"
         style="fill:#0000ff;fill-opacity:1;fill-rule:evenodd;stroke:#0000ff;stroke-width:0.625;stroke-linejoin:round;stroke-opacity:1"
         d="M 8.7185878,4.0337352 -2.2072895,0.01601326 8.7185884,-4.0017078 c -1.7454984,2.3720609 -1.7354408,5.6174519 -6e-7,8.035443 z"
         transform="scale(-0.6,-0.6)" />
    </marker>
  </defs>
  <metadata
     id="metadata7">
    <rdf:RDF>
      <cc:Work
         rdf:about="">
        <dc:format>image/svg+xml</dc:format>
        <dc:type
           rdf:resource="http://purl.org/dc/dcmitype/StillImage" />
        <dc:title></dc:title>
      </cc:Work>
    </rdf:RDF>
  </metadata>
  <g
     inkscape:label="Layer 1"
     inkscape:groupmode="layer"
     id="layer1"
     transform="translate(-97.911919,-349.62458)">
    <g
       transform="matrix(0.53010213,0,0,0.53010213,-35.189064,492.3489)"
       id="g4284">
      <g
         style="font-style:normal;font-variant:normal;font-weight:normal;font-stretch:normal;letter-spacing:normal;word-spacing:normal;text-anchor:start;fill:none;fill-opacity:1;fill-rule:evenodd;stroke:#000000;stroke-linecap:butt;stroke-linejoin:miter;stroke-miterlimit:10.43299961;stroke-dasharray:none;stroke-dashoffset:0;stroke-opacity:1"
         id="g4286"
         transform="matrix(1.0629921,0,0,-1.0629921,-186.02362,789.27165)"
         xml:space="preserve"
         stroke-miterlimit="10.433"
         font-style="normal"
         font-variant="normal"
         font-weight="normal"
         font-stretch="normal"
         font-size-adjust="none"
         letter-spacing="normal"
         word-spacing="normal"><path
           style="fill:#000000;stroke-width:0"
           inkscape:connector-curvature="0"
           d="m 490.74,406.2 0,0.95 c -2.58,0.3 -3.28,1.35 -4.67,4.58 l -12.27,28.05 -1,0 -10.25,-24.32 c -2.95,-6.96 -3.39,-8.01 -6.28,-8.31 l 0,-0.95 9.91,0 0,0.95 c -2.39,0 -3.49,0.49 -3.49,2.03 0,0.61 0.2,1.46 0.45,2.1 l 2.3,5.68 13.05,0 -0.7,2.04 -11.5,0 5.71,13.7 5.79,-13.7 0.7,-2.04 2.05,-4.68 c 0.59,-1.39 0.93,-2.74 0.93,-3.49 0,-0.45 -0.29,-1 -0.68,-1.2 -0.61,-0.34 -0.96,-0.44 -2.75,-0.44 l 0,-0.95 z"
           id="path4288" /><polygon
           style="fill:#000000;stroke-width:0"
           points="517.95,417.15 517.95,404.15 521.25,404.15 521.25,417.15 534.25,417.15 534.25,420.45 521.25,420.45 521.25,433.45 517.95,433.45 517.95,420.45 504.95,420.45 504.95,417.15 "
           id="polygon4290" /><path
           style="fill:#000000;stroke-width:0"
           inkscape:connector-curvature="0"
           d="m 568.83,423.59 0.24,0.06 0.22,0.06 0.22,0.05 0.21,0.06 0.21,0.06 0.19,0.05 0.19,0.06 0.18,0.05 0.18,0.05 0.17,0.06 0.16,0.05 0.16,0.06 0.15,0.05 0.14,0.06 0.15,0.06 0.13,0.05 0.14,0.06 0.13,0.06 0.25,0.13 0.24,0.13 0.23,0.15 0.22,0.15 0.22,0.16 0.23,0.17 0.11,0.1 0.11,0.09 c 1.23,1.1 2.03,3.14 2.03,5.18 0,5.28 -4.42,8.32 -13.05,8.32 l -0.84,-1.84 c 5.92,0 8.81,-2.55 8.81,-6.73 0,-4.13 -2.44,-6.18 -7.47,-6.18 l -4.57,0 0,-2 c 5.87,-0.18 7.76,0 10.75,-1.98 1.64,-1.09 2.34,-2.94 2.34,-5.33 0,-2.14 -0.64,-3.84 -1.89,-4.94 -2.19,-1.93 -3.94,-2.14 -8.13,-2.14 -2.28,0 -3.07,0.55 -3.07,2.24 l 0,12.15 0,2 0,11.32 c 0,1.14 0.34,1.59 1.18,1.59 l 2.05,0 0.84,1.84 -13.95,0 0,-0.95 c 4.03,-0.25 4.78,-0.69 4.78,-4.62 l 0,-21.79 c 0,-3.78 -0.84,-4.57 -4.78,-4.67 l 0,-0.95 16.8,0 c 7.22,0 11.9,3.34 11.9,8.87 0,2.19 -0.84,4.29 -2.43,5.72 -1.46,1.3 -2.8,2.21 -6.08,2.75 z"
           id="path4292" /><path
           style="fill:#000000;stroke-width:0"
           inkscape:connector-curvature="0"
           d="m 637.48,422.14 0,0.25 c -4.78,2.29 -8.86,6.92 -11.85,10.67 l -1,-0.95 c 1.14,-1.65 2.1,-3.24 3.58,-4.79 0.45,-0.45 0.7,-0.79 0.7,-1.2 0,-0.48 -0.4,-0.69 -1.29,-0.69 l -29.3,0 0,-3.29 z"
           id="path4294" /><path
           style="fill:#000000;stroke-width:0"
           inkscape:connector-curvature="0"
           d="m 637.48,412.18 0,3.28 -39.16,0 0,-0.25 c 4.78,-2.29 8.88,-6.92 11.86,-10.65 l 1,0.94 c -1.14,1.65 -2.09,3.25 -3.59,4.78 -0.44,0.45 -0.69,0.79 -0.69,1.2 0,0.5 0.39,0.7 1.3,0.7 z"
           id="path4296" /><path
           style="fill:#000000;stroke-width:0"
           inkscape:connector-curvature="0"
           d="m 669.73,398.43 0,1.24 -4.13,0 c -1.64,0 -2.59,0.7 -2.59,2.69 l 0,33.18 c 0,1.8 0.89,2.39 2.59,2.39 l 4.13,0 0,1.25 -10.5,0 0,-40.75 z"
           id="path4298" /><path
           style="fill:#000000;stroke-width:0"
           inkscape:connector-curvature="0"
           d="m 706.61,406.2 0,0.95 c -2.58,0.3 -3.28,1.35 -4.67,4.58 l -12.26,28.05 -1,0 -10.25,-24.32 c -2.96,-6.96 -3.4,-8.01 -6.28,-8.31 l 0,-0.95 9.9,0 0,0.95 c -2.39,0 -3.48,0.49 -3.48,2.03 0,0.61 0.2,1.46 0.45,2.1 l 2.3,5.68 13.04,0 -0.7,2.04 -11.5,0 5.72,13.7 5.78,-13.7 0.7,-2.04 2.05,-4.68 c 0.59,-1.39 0.94,-2.74 0.94,-3.49 0,-0.45 -0.3,-1 -0.69,-1.2 -0.61,-0.34 -0.95,-0.44 -2.75,-0.44 l 0,-0.95 z"
           id="path4300" /><path
           style="fill:#000000;stroke-width:0"
           inkscape:connector-curvature="0"
           d="m 728.43,423.59 0.23,0.06 0.23,0.06 0.22,0.05 0.21,0.06 0.21,0.06 0.19,0.05 0.19,0.06 0.18,0.05 0.18,0.05 0.16,0.06 0.17,0.05 0.15,0.06 0.16,0.05 0.14,0.06 0.14,0.06 0.14,0.05 0.14,0.06 0.13,0.06 0.25,0.13 0.23,0.13 0.23,0.15 0.23,0.15 0.22,0.16 0.22,0.17 0.11,0.1 0.12,0.09 c 1.23,1.1 2.03,3.14 2.03,5.18 0,5.28 -4.42,8.32 -13.05,8.32 l -0.84,-1.84 c 5.92,0 8.81,-2.55 8.81,-6.73 0,-4.13 -2.44,-6.18 -7.47,-6.18 l -4.58,0 0,-2 c 5.88,-0.18 7.77,0 10.75,-1.98 1.64,-1.09 2.35,-2.94 2.35,-5.33 0,-2.14 -0.64,-3.84 -1.89,-4.94 -2.19,-1.93 -3.94,-2.14 -8.13,-2.14 -2.28,0 -3.08,0.55 -3.08,2.24 l 0,12.15 0,2 0,11.32 c 0,1.14 0.35,1.59 1.19,1.59 l 2.05,0 0.84,1.84 -13.95,0 0,-0.95 c 4.03,-0.25 4.78,-0.69 4.78,-4.62 l 0,-21.79 c 0,-3.78 -0.84,-4.57 -4.78,-4.67 l 0,-0.95 16.79,0 c 7.22,0 11.91,3.34 11.91,8.87 0,2.19 -0.84,4.29 -2.44,5.72 -1.45,1.3 -2.79,2.21 -6.07,2.75 z"
           id="path4302" /><path
           style="fill:#000000;stroke-width:0"
           inkscape:connector-curvature="0"
           d="m 752.84,398.43 0,40.75 -10.52,0 0,-1.25 4.19,0 c 1.89,0 2.54,-0.93 2.54,-2.68 l 0,-33.29 c 0,-1.54 -0.59,-2.29 -2.34,-2.29 l -4.39,0 0,-1.24 z"
           id="path4304" /><path
           style="fill:#000000;stroke-width:0"
           inkscape:connector-curvature="0"
           d="m 773.68,440.23 0,0.09 0,0.09 -0.01,0.08 -0.02,0.09 -0.01,0.08 -0.02,0.08 -0.02,0.08 -0.03,0.08 -0.03,0.07 -0.03,0.08 -0.03,0.07 -0.04,0.07 -0.04,0.06 -0.04,0.07 -0.05,0.06 -0.04,0.05 -0.05,0.06 -0.06,0.05 -0.05,0.05 -0.05,0.05 -0.06,0.04 -0.06,0.04 -0.06,0.03 -0.07,0.04 -0.06,0.03 -0.07,0.02 -0.06,0.02 -0.07,0.02 -0.07,0.02 -0.07,0.01 -0.08,0 -0.07,0 c -0.48,0 -1.11,-0.18 -1.86,-0.48 -1.56,-0.64 -2.12,-0.78 -3.47,-0.83 0,2.02 0.14,2.88 0.89,4.78 0.3,0.74 0.46,1.35 0.46,1.75 0,0.86 -0.86,1.67 -1.75,1.67 -0.86,0 -1.72,-0.81 -1.72,-1.67 0,-0.4 0.14,-1.01 0.44,-1.75 0.75,-1.9 0.85,-2.76 0.85,-4.78 -1.29,0.05 -1.85,0.19 -3.42,0.83 -0.75,0.3 -1.37,0.48 -1.83,0.48 -0.82,0 -1.45,-0.71 -1.45,-1.64 0,-1.04 0.57,-1.61 1.64,-1.61 0.44,0 0.81,0.08 1.72,0.46 1.46,0.56 2.05,0.7 3.34,0.81 0,-3.28 -0.35,-5.17 -1.48,-6.64 1.08,-1 1.48,-2.86 1.48,-6.52 -1.29,0.11 -1.82,0.22 -3.38,0.82 -0.79,0.29 -1.46,0.45 -1.94,0.45 -0.81,0 -1.43,-0.67 -1.43,-1.56 0,-0.97 0.62,-1.69 1.46,-1.69 0.45,0 1.09,0.19 1.83,0.48 1.58,0.64 2.12,0.8 3.46,0.83 0,-2.01 -0.13,-2.87 -0.88,-4.78 -0.3,-0.73 -0.46,-1.33 -0.46,-1.75 0,-0.86 0.86,-1.67 1.72,-1.67 0.91,0 1.75,0.81 1.75,1.67 0,0.42 -0.14,1.02 -0.44,1.75 -0.75,1.91 -0.86,2.77 -0.86,4.78 1.35,-0.03 1.86,-0.19 3.42,-0.83 0.75,-0.29 1.43,-0.48 1.83,-0.48 0.83,0 1.46,0.72 1.46,1.61 0,0.97 -0.6,1.64 -1.41,1.64 -0.48,0 -1.2,-0.16 -1.94,-0.45 -1.57,-0.6 -2.09,-0.71 -3.36,-0.82 0,3.66 0.33,5.22 1.49,6.52 -1.16,1.39 -1.49,3.06 -1.49,6.64 1.3,-0.11 1.83,-0.22 3.39,-0.81 0.78,-0.3 1.46,-0.46 1.99,-0.46 0.78,0 1.37,0.68 1.37,1.57 z"
           id="path4306" /><path
           style="fill:#000000;stroke-width:0"
           inkscape:connector-curvature="0"
           d="m 834.88,422.14 0,0.25 c -4.78,2.29 -8.86,6.92 -11.85,10.67 l -1,-0.95 c 1.15,-1.65 2.1,-3.24 3.58,-4.79 0.46,-0.45 0.71,-0.79 0.71,-1.2 0,-0.48 -0.41,-0.69 -1.3,-0.69 l -29.3,0 0,-3.29 z"
           id="path4308" /><path
           style="fill:#000000;stroke-width:0"
           inkscape:connector-curvature="0"
           d="m 834.88,412.18 0,3.28 -39.16,0 0,-0.25 c 4.78,-2.29 8.88,-6.92 11.86,-10.65 l 1,0.94 c -1.14,1.65 -2.09,3.25 -3.59,4.78 -0.44,0.45 -0.69,0.79 -0.69,1.2 0,0.5 0.39,0.7 1.3,0.7 z"
           id="path4310" /><path
           style="fill:#000000;stroke-width:0"
           inkscape:connector-curvature="0"
           d="m 882.71,412.73 -0.35,-0.33 -0.34,-0.31 -0.34,-0.3 -0.33,-0.29 -0.33,-0.28 -0.32,-0.27 -0.33,-0.26 -0.32,-0.24 -0.32,-0.24 -0.31,-0.22 -0.32,-0.21 -0.32,-0.2 -0.31,-0.19 -0.32,-0.18 -0.32,-0.17 -0.32,-0.16 -0.32,-0.14 -0.33,-0.14 -0.33,-0.13 -0.33,-0.11 -0.34,-0.11 -0.34,-0.1 -0.35,-0.09 -0.35,-0.07 -0.36,-0.07 -0.36,-0.06 -0.37,-0.05 -0.38,-0.04 -0.39,-0.03 -0.4,-0.02 -0.4,-0.02 -0.42,0 c -3.44,0 -6.67,1.23 -8.86,3.58 -2.34,2.54 -3.59,6.43 -3.59,11.9 0,8.63 4.44,14.71 11.95,14.71 3.25,0 5.83,-1.46 8.03,-3.78 1.24,-1.35 1.99,-2.8 2.6,-5.54 l 1.14,0 -0.46,11.3 -1,0 c -0.29,-1.03 -1.14,-1.64 -2.07,-1.64 -0.86,0 -2.41,0.61 -3.44,0.91 -2,0.54 -4,0.73 -5.94,0.73 -4.62,0 -8.92,-1.64 -12.11,-5.17 -2.83,-3.19 -4.48,-7.33 -4.48,-12.31 0,-4.93 1.75,-9.47 4.78,-12.46 2.89,-2.84 7.23,-4.43 11.76,-4.43 5.88,0 10.71,2.2 13.6,6.32 z"
           id="path4312" /><polygon
           style="fill:#000000;stroke-width:0"
           points="911.78,417.15 911.78,404.15 915.08,404.15 915.08,417.15 928.08,417.15 928.08,420.45 915.08,420.45 915.08,433.45 911.78,433.45 911.78,420.45 898.78,420.45 898.78,417.15 "
           id="polygon4314" /><path
           style="fill:#000000;stroke-width:0"
           inkscape:connector-curvature="0"
           d="m 942.43,439.18 0,-0.95 c 3.78,-0.25 4.39,-0.69 4.39,-4.62 l 0,-21.68 c 0,-3.89 -0.5,-4.53 -4.39,-4.78 l 0,-0.95 14,0 c 5.03,0 9.47,1.2 12.56,3.19 4.42,2.84 6.77,7.53 6.77,13.45 0,5.12 -1.69,9.02 -4.92,11.81 -3.39,2.94 -8.54,4.53 -14.96,4.53 l -1.34,-1.84 c 4.98,0 8.12,-0.84 11.06,-3.44 3.14,-2.75 4.74,-6.19 4.74,-11.36 0,-5.62 -1.71,-9.56 -5.19,-11.9 -2.99,-2 -5.74,-2.6 -10.86,-2.6 -1.94,0 -2.39,0.6 -2.39,2.35 l 0,24.86 c 0,1.64 0.75,2.09 2.64,2.09 l 1.34,1.84 z"
           id="path4316" /></g>    </g>
    <path
       inkscape:connector-curvature="0"
       id="path4466"
       d="m 102.44514,680.86799 0,-329.59687"
       style="display:inline;fill:none;fill-rule:evenodd;stroke:#000000;stroke-width:0.90468043px;stroke-linecap:butt;stroke-linejoin:miter;stroke-opacity:1;marker-end:url(#Arrow1Lend)" />
    <path
       inkscape:connector-curvature="0"
       id="path4486"
       d="m 356.70136,655.39536 63.68159,0"
       style="display:inline;fill:none;fill-rule:evenodd;stroke:#0000ff;stroke-width:2;stroke-linecap:butt;stroke-linejoin:miter;stroke-miterlimit:4;stroke-dasharray:none;stroke-opacity:1" />
    <path
       inkscape:connector-curvature="0"
       id="path4486-7"
       d="m 132.90604,564.42166 63.68159,0"
       style="display:inline;fill:none;fill-rule:evenodd;stroke:#0000ff;stroke-width:2;stroke-linecap:butt;stroke-linejoin:miter;stroke-miterlimit:4;stroke-dasharray:none;stroke-opacity:1" />
    <path
       inkscape:connector-curvature="0"
       id="path4486-7-5"
       d="m 132.90604,527.42569 63.68159,0"
       style="display:inline;fill:none;fill-rule:evenodd;stroke:#ff0000;stroke-width:2;stroke-linecap:butt;stroke-linejoin:miter;stroke-miterlimit:4;stroke-dasharray:none;stroke-opacity:1" />
    <path
       inkscape:connector-curvature="0"
       id="path4486-7-3"
       d="m 356.70136,598.99167 63.68159,0"
       style="display:inline;fill:none;fill-rule:evenodd;stroke:#ff0000;stroke-width:2;stroke-linecap:butt;stroke-linejoin:miter;stroke-miterlimit:4;stroke-dasharray:none;stroke-opacity:1" />
    <path
       inkscape:connector-curvature="0"
       id="path4486-7-56"
       d="m 237.82905,470.4155 63.68159,0"
       style="display:inline;fill:none;fill-rule:evenodd;stroke:#0000ff;stroke-width:2;stroke-linecap:butt;stroke-linejoin:miter;stroke-miterlimit:4;stroke-dasharray:none;stroke-opacity:1" />
    <path
       inkscape:connector-curvature="0"
       id="path4486-7-2"
       d="m 237.82905,398.24303 63.68159,0"
       style="display:inline;fill:none;fill-rule:evenodd;stroke:#ff0000;stroke-width:2;stroke-linecap:butt;stroke-linejoin:miter;stroke-miterlimit:4;stroke-dasharray:none;stroke-opacity:1" />
    <path
       inkscape:connector-curvature="0"
       id="path4556"
       d="m 196.28439,563.81517 40.63493,-92.79318"
       style="display:inline;fill:none;fill-rule:evenodd;stroke:#0000ff;stroke-width:1;stroke-linecap:butt;stroke-linejoin:miter;stroke-miterlimit:4;stroke-dasharray:1, 1;stroke-dashoffset:0;stroke-opacity:1" />
    <path
       inkscape:connector-curvature="0"
       id="path4558"
       d="m 301.2074,469.80901 55.19071,184.97986"
       style="display:inline;fill:none;fill-rule:evenodd;stroke:#0000ff;stroke-width:1;stroke-linecap:butt;stroke-linejoin:miter;stroke-miterlimit:4;stroke-dasharray:1, 1;stroke-dashoffset:0;stroke-opacity:1" />
    <path
       inkscape:connector-curvature="0"
       id="path4560"
       d="M 196.89088,525.60621 238.1323,397.03005"
       style="display:inline;fill:none;fill-rule:evenodd;stroke:#ff0000;stroke-width:1;stroke-linecap:butt;stroke-linejoin:miter;stroke-miterlimit:4;stroke-dasharray:1, 1;stroke-dashoffset:0;stroke-opacity:1" />
    <path
       inkscape:connector-curvature="0"
       id="path4562"
       d="m 301.2074,398.84952 55.7972,199.53565"
       style="display:inline;fill:none;fill-rule:evenodd;stroke:#ff0000;stroke-width:1;stroke-linecap:butt;stroke-linejoin:miter;stroke-miterlimit:4;stroke-dasharray:1, 1;stroke-dashoffset:0;stroke-opacity:1" />
    <path
       inkscape:connector-curvature="0"
       id="path4886"
       d="m 357.12562,656.32941 -253.77075,0"
       style="display:inline;fill:none;fill-rule:evenodd;stroke:#000000;stroke-width:0.93171901;stroke-linecap:butt;stroke-linejoin:miter;stroke-miterlimit:4;stroke-dasharray:3.72687598, 7.45375197;stroke-dashoffset:0;stroke-opacity:1" />
    <path
       inkscape:connector-curvature="0"
       id="path4952"
       d="m 197.49737,527.42569 220.76286,0"
       style="display:inline;fill:none;fill-rule:evenodd;stroke:#000000;stroke-width:1;stroke-linecap:butt;stroke-linejoin:miter;stroke-miterlimit:4;stroke-dasharray:4, 4;stroke-dashoffset:0;stroke-opacity:1" />
    <path
       inkscape:connector-curvature="0"
       id="path4954"
       d="m 162.32087,654.78887 0,-89.76072"
       style="display:inline;fill:none;fill-rule:evenodd;stroke:#0000ff;stroke-width:1px;stroke-linecap:butt;stroke-linejoin:miter;stroke-opacity:1;marker-start:url(#marker6798);marker-end:url(#marker7092)" />
    <path
       inkscape:connector-curvature="0"
       id="path4956"
       d="m 388.54215,597.77868 0,-70.95948"
       style="display:inline;fill:none;fill-rule:evenodd;stroke:#ff0000;stroke-width:1px;stroke-linecap:butt;stroke-linejoin:miter;stroke-opacity:1;marker-start:url(#Arrow1Mstart);marker-end:url(#Arrow1Mend)" />
    <g
       style="display:inline;stroke:#0000ff;stroke-opacity:1"
       transform="matrix(0.37850892,0,0,0.37850892,279.47605,430.84662)"
       id="g8501">
      <g
         style="font-style:normal;font-variant:normal;font-weight:normal;font-stretch:normal;letter-spacing:normal;word-spacing:normal;text-anchor:start;fill:none;fill-opacity:1;fill-rule:evenodd;stroke:#0000ff;stroke-linecap:butt;stroke-linejoin:miter;stroke-miterlimit:10.43299961;stroke-dasharray:none;stroke-dashoffset:0;stroke-opacity:1"
         word-spacing="normal"
         letter-spacing="normal"
         font-size-adjust="none"
         font-stretch="normal"
         font-weight="normal"
         font-variant="normal"
         font-style="normal"
         stroke-miterlimit="10.433"
         xml:space="preserve"
         transform="matrix(1.0629921,0,0,-1.0629921,-186.02362,789.27165)"
         id="g8503"><polygon
           style="fill:#ff0000;fill-opacity:1;stroke:#0000ff;stroke-width:0;stroke-opacity:1"
           id="polygon8505"
           points="472,432.7 481.63,410.78 462.3,410.78 457.91,406.2 489.14,406.2 473.8,439.78 472.8,439.78 457.91,406.2 462.3,410.78 " /><path
           style="fill:#ff0000;fill-opacity:1;stroke:#0000ff;stroke-width:0;stroke-opacity:1"
           inkscape:connector-curvature="0"
           id="path8507"
           d="m 528.08,422.59 -15.59,0 -0.19,-0.8 0.94,0 c 3.04,0 3.73,-0.75 3.73,-1.84 0,-0.34 -0.04,-0.84 -0.14,-1.25 l -2.84,-10.02 c -1.34,-0.84 -2.8,-1.23 -4.83,-1.23 -7.33,0 -9.02,4.83 -9.02,8.91 0,8.92 4.43,21.28 15.85,21.28 5.62,0 7.97,-4.03 7.97,-7.68 0,-0.54 -0.05,-1.09 -0.11,-1.59 l 0.8,0 2.25,11.11 -0.8,0 c -0.16,-0.8 -1.05,-1.84 -2.14,-1.84 -1.1,0 -2.05,0.75 -3.14,1.04 -1.1,0.35 -2.69,0.8 -5.14,0.8 -12.6,0 -21.68,-10.77 -21.68,-21.22 0,-8.92 6.74,-12.65 14.55,-12.65 3.14,0 6.89,0 10.81,2.34 l 3.1,10.75 c 0.5,1.8 1.39,3.09 5.62,3.09 z" /><path
           style="fill:#ff0000;fill-opacity:1;stroke:#0000ff;stroke-width:0;stroke-opacity:1"
           inkscape:connector-curvature="0"
           id="path8509"
           d="m 546.83,435.91 -0.01,0.71 -0.03,0.7 -0.05,0.68 -0.07,0.66 -0.08,0.65 -0.11,0.63 -0.12,0.62 -0.14,0.59 -0.15,0.58 -0.18,0.56 -0.19,0.54 -0.2,0.52 -0.22,0.5 -0.24,0.48 -0.25,0.46 -0.27,0.43 -0.28,0.42 -0.29,0.39 -0.31,0.37 -0.32,0.34 -0.34,0.32 -0.35,0.29 -0.35,0.27 -0.38,0.25 -0.38,0.21 -0.39,0.19 -0.41,0.16 -0.41,0.13 -0.43,0.11 -0.43,0.07 -0.45,0.05 -0.45,0.01 c -6,0 -8.58,-6.07 -8.58,-12.67 0,-6.12 2.06,-13.04 8.44,-13.04 l 0,0.96 c -3.22,0 -4.86,4.25 -4.86,11.82 0,7.58 1.68,11.97 4.78,11.97 3.28,0 4.92,-4.36 4.92,-12.11 l 0,0 c 0,-7.39 -1.69,-11.68 -4.84,-11.68 l 0,-0.96 c 6.07,0 8.42,6.4 8.42,12.82 z" /><path
           style="fill:#ff0000;fill-opacity:1;stroke:#0000ff;stroke-width:0;stroke-opacity:1"
           inkscape:connector-curvature="0"
           id="path8511"
           d="m 565.34,398.18 -0.64,0.55 -0.6,0.55 -0.58,0.54 -0.54,0.55 -0.52,0.55 -0.49,0.55 -0.46,0.55 -0.43,0.56 -0.41,0.56 -0.38,0.57 -0.36,0.57 -0.33,0.58 -0.31,0.58 -0.29,0.6 -0.26,0.6 -0.25,0.61 -0.22,0.63 -0.21,0.63 -0.18,0.64 -0.17,0.66 -0.15,0.67 -0.13,0.69 -0.11,0.69 -0.11,0.72 -0.08,0.72 -0.07,0.75 -0.06,0.76 -0.05,0.78 -0.04,0.8 -0.02,0.82 -0.01,0.83 -0.01,0.86 c 0,9.61 1.55,14.25 8.47,20.17 l -0.44,0.8 c -7.98,-4.72 -12.31,-11.91 -12.31,-21.11 0,-8.48 4.28,-16.89 12.16,-21.37 z" /><path
           style="fill:#ff0000;fill-opacity:1;stroke:#0000ff;stroke-width:0;stroke-opacity:1"
           inkscape:connector-curvature="0"
           id="path8513"
           d="m 582.45,406.2 0,0.95 c -4.08,0.14 -4.88,0.89 -4.88,4.63 l 0,21.87 c 0,3.78 0.7,4.38 4.88,4.58 l 0,0.95 -14.8,0 0,-0.95 c 4.23,-0.25 4.84,-0.64 4.84,-4.58 l 0,-21.87 c 0,-3.89 -0.65,-4.49 -4.84,-4.63 l 0,-0.95 z" /><path
           style="fill:#ff0000;fill-opacity:1;stroke:#0000ff;stroke-width:0;stroke-opacity:1"
           inkscape:connector-curvature="0"
           id="path8515"
           d="m 584.75,439.07 0.66,-0.53 0.63,-0.53 0.59,-0.54 0.57,-0.53 0.52,-0.54 0.5,-0.55 0.47,-0.54 0.44,-0.56 0.41,-0.55 0.39,-0.57 0.36,-0.57 0.33,-0.58 0.31,-0.59 0.28,-0.59 0.26,-0.61 0.24,-0.61 0.22,-0.63 0.19,-0.63 0.18,-0.65 0.16,-0.66 0.14,-0.68 0.13,-0.69 0.11,-0.7 0.09,-0.72 0.08,-0.73 0.06,-0.75 0.06,-0.77 0.04,-0.78 0.03,-0.81 0.02,-0.82 0.01,-0.84 0.01,-0.86 c 0,-9.68 -1.41,-14.35 -8.49,-20.18 l 0.46,-0.79 c 7.92,4.82 12.31,11.9 12.31,21.12 0,8.47 -4.53,16.78 -12.16,21.36 z" /></g>    </g>
    <g
       transform="matrix(0.35631281,0,0,0.35631281,59.323347,488.72153)"
       id="g8709"
       style="display:inline">
      <g
         style="font-style:normal;font-variant:normal;font-weight:normal;font-stretch:normal;letter-spacing:normal;word-spacing:normal;text-anchor:start;fill:none;fill-opacity:1;fill-rule:evenodd;stroke:#000000;stroke-linecap:butt;stroke-linejoin:miter;stroke-miterlimit:10.43299961;stroke-dasharray:none;stroke-dashoffset:0;stroke-opacity:1"
         id="g8711"
         transform="matrix(1.0629921,0,0,-1.0629921,-186.02362,789.27165)"
         xml:space="preserve"
         stroke-miterlimit="10.433"
         font-style="normal"
         font-variant="normal"
         font-weight="normal"
         font-stretch="normal"
         font-size-adjust="none"
         letter-spacing="normal"
         word-spacing="normal"><polygon
           style="fill:#0000ff;fill-opacity:1;stroke-width:0"
           points="472.8,439.78 457.91,406.2 462.3,410.78 472,432.7 481.63,410.78 462.3,410.78 457.91,406.2 489.14,406.2 473.8,439.78 "
           id="polygon8713" /><path
           style="fill:#0000ff;fill-opacity:1;stroke-width:0"
           inkscape:connector-curvature="0"
           d="m 528.08,422.59 -15.59,0 -0.19,-0.8 0.94,0 c 3.04,0 3.73,-0.75 3.73,-1.84 0,-0.34 -0.04,-0.84 -0.14,-1.25 l -2.84,-10.02 c -1.34,-0.84 -2.8,-1.23 -4.83,-1.23 -7.33,0 -9.02,4.83 -9.02,8.91 0,8.92 4.43,21.28 15.85,21.28 5.62,0 7.97,-4.03 7.97,-7.68 0,-0.54 -0.05,-1.09 -0.11,-1.59 l 0.8,0 2.25,11.11 -0.8,0 c -0.16,-0.8 -1.05,-1.84 -2.14,-1.84 -1.1,0 -2.05,0.75 -3.14,1.04 -1.1,0.35 -2.69,0.8 -5.14,0.8 -12.6,0 -21.68,-10.77 -21.68,-21.22 0,-8.92 6.74,-12.65 14.55,-12.65 3.14,0 6.89,0 10.81,2.34 l 3.1,10.75 c 0.5,1.8 1.39,3.09 5.62,3.09 z"
           id="path8715" /><path
           style="fill:#0000ff;fill-opacity:1;stroke-width:0"
           inkscape:connector-curvature="0"
           d="m 546.83,435.91 -0.01,0.71 -0.03,0.7 -0.05,0.68 -0.07,0.66 -0.08,0.65 -0.11,0.63 -0.12,0.62 -0.14,0.59 -0.15,0.58 -0.18,0.56 -0.19,0.54 -0.2,0.52 -0.22,0.5 -0.24,0.48 -0.25,0.46 -0.27,0.43 -0.28,0.42 -0.29,0.39 -0.31,0.37 -0.32,0.34 -0.34,0.32 -0.35,0.29 -0.35,0.27 -0.38,0.25 -0.38,0.21 -0.39,0.19 -0.41,0.16 -0.41,0.13 -0.43,0.11 -0.43,0.07 -0.45,0.05 -0.45,0.01 c -6,0 -8.58,-6.07 -8.58,-12.67 0,-6.12 2.06,-13.04 8.44,-13.04 l 0,0.96 c -3.22,0 -4.86,4.25 -4.86,11.82 0,7.58 1.68,11.97 4.78,11.97 3.28,0 4.92,-4.36 4.92,-12.11 l 0,0 c 0,-7.39 -1.69,-11.68 -4.84,-11.68 l 0,-0.96 c 6.07,0 8.42,6.4 8.42,12.82 z"
           id="path8717" /><path
           style="fill:#0000ff;fill-opacity:1;stroke-width:0"
           inkscape:connector-curvature="0"
           d="m 565.34,398.18 -0.64,0.55 -0.6,0.55 -0.58,0.54 -0.54,0.55 -0.52,0.55 -0.49,0.55 -0.46,0.55 -0.43,0.56 -0.41,0.56 -0.38,0.57 -0.36,0.57 -0.33,0.58 -0.31,0.58 -0.29,0.6 -0.26,0.6 -0.25,0.61 -0.22,0.63 -0.21,0.63 -0.18,0.64 -0.17,0.66 -0.15,0.67 -0.13,0.69 -0.11,0.69 -0.11,0.72 -0.08,0.72 -0.07,0.75 -0.06,0.76 -0.05,0.78 -0.04,0.8 -0.02,0.82 -0.01,0.83 -0.01,0.86 c 0,9.61 1.55,14.25 8.47,20.17 l -0.44,0.8 c -7.98,-4.72 -12.31,-11.91 -12.31,-21.11 0,-8.48 4.28,-16.89 12.16,-21.37 z"
           id="path8719" /><path
           style="fill:#0000ff;fill-opacity:1;stroke-width:0"
           inkscape:connector-curvature="0"
           d="m 582.45,406.2 0,0.95 c -4.08,0.14 -4.88,0.89 -4.88,4.63 l 0,21.87 c 0,3.78 0.7,4.38 4.88,4.58 l 0,0.95 -14.8,0 0,-0.95 c 4.23,-0.25 4.84,-0.64 4.84,-4.58 l 0,-21.87 c 0,-3.89 -0.65,-4.49 -4.84,-4.63 l 0,-0.95 z"
           id="path8721" /><path
           style="fill:#0000ff;fill-opacity:1;stroke-width:0"
           inkscape:connector-curvature="0"
           d="m 599,406.2 0,0.95 c -4.07,0.14 -4.87,0.89 -4.87,4.63 l 0,21.87 c 0,3.78 0.7,4.38 4.87,4.58 l 0,0.95 -14.79,0 0,-0.95 c 4.23,-0.25 4.84,-0.64 4.84,-4.58 l 0,-21.87 c 0,-3.89 -0.65,-4.49 -4.84,-4.63 l 0,-0.95 z"
           id="path8723" /><path
           style="fill:#0000ff;fill-opacity:1;stroke-width:0"
           inkscape:connector-curvature="0"
           d="m 601.43,439.07 0.66,-0.53 0.63,-0.53 0.59,-0.54 0.57,-0.53 0.52,-0.54 0.5,-0.55 0.47,-0.54 0.44,-0.56 0.41,-0.55 0.39,-0.57 0.36,-0.57 0.33,-0.58 0.31,-0.59 0.28,-0.59 0.26,-0.61 0.24,-0.61 0.22,-0.63 0.19,-0.63 0.18,-0.65 0.16,-0.66 0.14,-0.68 0.13,-0.69 0.11,-0.7 0.09,-0.72 0.08,-0.73 0.06,-0.75 0.06,-0.77 0.04,-0.78 0.03,-0.81 0.02,-0.82 0.01,-0.84 0.01,-0.86 c 0,-9.68 -1.41,-14.35 -8.49,-20.18 l 0.46,-0.79 c 7.92,4.82 12.31,11.9 12.31,21.12 0,8.47 -4.53,16.78 -12.16,21.36 z"
           id="path8725" /></g>    </g>
    <path
       sodipodi:nodetypes="cc"
       inkscape:connector-curvature="0"
       id="path4952-3"
       d="m 196.92639,564.14412 109.94035,0"
       style="display:inline;fill:none;fill-rule:evenodd;stroke:#000000;stroke-width:1;stroke-linecap:butt;stroke-linejoin:miter;stroke-miterlimit:4;stroke-dasharray:4, 4;stroke-dashoffset:0;stroke-opacity:1" />
    <path
       sodipodi:nodetypes="cc"
       inkscape:connector-curvature="0"
       id="path4956-5"
       d="m 354.63203,525.94186 0,-127.26929"
       style="display:inline;fill:none;fill-rule:evenodd;stroke:#ff0000;stroke-width:1px;stroke-linecap:butt;stroke-linejoin:miter;stroke-opacity:1;marker-start:url(#Arrow1Mstart-6);marker-end:url(#Arrow1Mend-5)" />
    <path
       inkscape:connector-curvature="0"
       id="path4954-2"
       d="m 245.00761,562.89835 0,-89.76072"
       style="display:inline;fill:none;fill-rule:evenodd;stroke:#0000ff;stroke-width:1px;stroke-linecap:butt;stroke-linejoin:miter;stroke-opacity:1;marker-start:url(#marker6798-6);marker-end:url(#marker7092-9)" />
    <path
       sodipodi:nodetypes="cc"
       inkscape:connector-curvature="0"
       id="path4952-3-7"
       d="m 302.05802,398.20987 109.94035,0"
       style="display:inline;fill:none;fill-rule:evenodd;stroke:#000000;stroke-width:1;stroke-linecap:butt;stroke-linejoin:miter;stroke-miterlimit:4;stroke-dasharray:4, 4;stroke-dashoffset:0;stroke-opacity:1" />
    <g
       id="g10137"
       transform="matrix(0.40806739,0,0,0.40806739,125.29696,365.71207)">
      <g
         id="content"
         transform="matrix(1.0629921,0,0,-1.0629921,-186.02362,789.27165)"
         xml:space="preserve"
         stroke-miterlimit="10.433"
         font-style="normal"
         font-variant="normal"
         font-weight="normal"
         font-stretch="normal"
         font-size-adjust="none"
         letter-spacing="normal"
         word-spacing="normal"
         style="font-style:normal;font-variant:normal;font-weight:normal;font-stretch:normal;letter-spacing:normal;word-spacing:normal;text-anchor:start;fill:none;fill-opacity:1;fill-rule:evenodd;stroke:#000000;stroke-linecap:butt;stroke-linejoin:miter;stroke-miterlimit:10.43299961;stroke-dasharray:none;stroke-dashoffset:0;stroke-opacity:1"><polygon
           points="462.3,410.78 457.91,406.2 489.14,406.2 473.8,439.78 472.8,439.78 457.91,406.2 462.3,410.78 472,432.7 481.63,410.78 "
           id="polygon10140"
           style="fill:#0000ff;fill-opacity:1;stroke-width:0" /><path
           d="m 528.08,422.59 -15.59,0 -0.19,-0.8 0.94,0 c 3.04,0 3.73,-0.75 3.73,-1.84 0,-0.34 -0.04,-0.84 -0.14,-1.25 l -2.84,-10.02 c -1.34,-0.84 -2.8,-1.23 -4.83,-1.23 -7.33,0 -9.02,4.83 -9.02,8.91 0,8.92 4.43,21.28 15.85,21.28 5.62,0 7.97,-4.03 7.97,-7.68 0,-0.54 -0.05,-1.09 -0.11,-1.59 l 0.8,0 2.25,11.11 -0.8,0 c -0.16,-0.8 -1.05,-1.84 -2.14,-1.84 -1.1,0 -2.05,0.75 -3.14,1.04 -1.1,0.35 -2.69,0.8 -5.14,0.8 -12.6,0 -21.68,-10.77 -21.68,-21.22 0,-8.92 6.74,-12.65 14.55,-12.65 3.14,0 6.89,0 10.81,2.34 l 3.1,10.75 c 0.5,1.8 1.39,3.09 5.62,3.09 z"
           id="path10142"
           style="fill:#0000ff;fill-opacity:1;stroke-width:0"
           inkscape:connector-curvature="0" /><path
           d="m 545.56,440.23 0,0.09 0,0.09 -0.01,0.08 -0.02,0.09 -0.01,0.08 -0.02,0.08 -0.02,0.08 -0.03,0.08 -0.03,0.07 -0.03,0.08 -0.03,0.07 -0.04,0.07 -0.04,0.06 -0.04,0.07 -0.05,0.06 -0.05,0.05 -0.04,0.06 -0.06,0.05 -0.05,0.05 -0.06,0.05 -0.05,0.04 -0.06,0.04 -0.06,0.03 -0.07,0.04 -0.06,0.03 -0.07,0.02 -0.07,0.02 -0.06,0.02 -0.07,0.02 -0.07,0.01 -0.08,0 -0.07,0 c -0.48,0 -1.11,-0.18 -1.86,-0.48 -1.56,-0.64 -2.12,-0.78 -3.47,-0.83 0,2.02 0.14,2.88 0.89,4.78 0.3,0.74 0.46,1.35 0.46,1.75 0,0.86 -0.86,1.67 -1.75,1.67 -0.86,0 -1.72,-0.81 -1.72,-1.67 0,-0.4 0.14,-1.01 0.43,-1.75 0.76,-1.9 0.86,-2.76 0.86,-4.78 -1.29,0.05 -1.86,0.19 -3.42,0.83 -0.75,0.3 -1.37,0.48 -1.83,0.48 -0.82,0 -1.45,-0.71 -1.45,-1.64 0,-1.04 0.56,-1.61 1.64,-1.61 0.44,0 0.81,0.08 1.72,0.46 1.45,0.56 2.05,0.7 3.34,0.81 0,-3.28 -0.36,-5.17 -1.48,-6.64 1.08,-1 1.48,-2.86 1.48,-6.52 -1.29,0.11 -1.82,0.22 -3.39,0.82 -0.78,0.29 -1.45,0.45 -1.93,0.45 -0.82,0 -1.43,-0.67 -1.43,-1.56 0,-0.97 0.61,-1.69 1.46,-1.69 0.45,0 1.09,0.19 1.83,0.48 1.57,0.64 2.12,0.8 3.46,0.83 0,-2.01 -0.14,-2.87 -0.89,-4.78 -0.29,-0.73 -0.45,-1.33 -0.45,-1.75 0,-0.86 0.86,-1.67 1.72,-1.67 0.91,0 1.75,0.81 1.75,1.67 0,0.42 -0.14,1.02 -0.44,1.75 -0.75,1.91 -0.86,2.77 -0.86,4.78 1.35,-0.03 1.86,-0.19 3.42,-0.83 0.75,-0.29 1.43,-0.48 1.83,-0.48 0.83,0 1.46,0.72 1.46,1.61 0,0.97 -0.6,1.64 -1.41,1.64 -0.49,0 -1.2,-0.16 -1.94,-0.45 -1.58,-0.6 -2.09,-0.71 -3.36,-0.82 0,3.66 0.33,5.22 1.49,6.52 -1.16,1.39 -1.49,3.06 -1.49,6.64 1.3,-0.11 1.83,-0.22 3.39,-0.81 0.78,-0.3 1.46,-0.46 1.99,-0.46 0.78,0 1.37,0.68 1.37,1.57 z"
           id="path10144"
           style="fill:#0000ff;fill-opacity:1;stroke-width:0"
           inkscape:connector-curvature="0" /><path
           d="m 565.34,398.18 -0.64,0.55 -0.6,0.55 -0.58,0.54 -0.54,0.55 -0.52,0.55 -0.49,0.55 -0.46,0.55 -0.43,0.56 -0.41,0.56 -0.38,0.57 -0.36,0.57 -0.33,0.58 -0.31,0.58 -0.29,0.6 -0.26,0.6 -0.25,0.61 -0.22,0.63 -0.21,0.63 -0.18,0.64 -0.17,0.66 -0.15,0.67 -0.13,0.69 -0.11,0.69 -0.11,0.72 -0.08,0.72 -0.07,0.75 -0.06,0.76 -0.05,0.78 -0.04,0.8 -0.02,0.82 -0.01,0.83 -0.01,0.86 c 0,9.61 1.55,14.25 8.47,20.17 l -0.44,0.8 c -7.98,-4.72 -12.31,-11.91 -12.31,-21.11 0,-8.48 4.28,-16.89 12.16,-21.37 z"
           id="path10146"
           style="fill:#0000ff;fill-opacity:1;stroke-width:0"
           inkscape:connector-curvature="0" /><path
           d="m 582.45,406.2 0,0.95 c -4.08,0.14 -4.88,0.89 -4.88,4.63 l 0,21.87 c 0,3.78 0.7,4.38 4.88,4.58 l 0,0.95 -14.8,0 0,-0.95 c 4.23,-0.25 4.84,-0.64 4.84,-4.58 l 0,-21.87 c 0,-3.89 -0.65,-4.49 -4.84,-4.63 l 0,-0.95 z"
           id="path10148"
           style="fill:#0000ff;fill-opacity:1;stroke-width:0"
           inkscape:connector-curvature="0" /><path
           d="m 599,406.2 0,0.95 c -4.07,0.14 -4.87,0.89 -4.87,4.63 l 0,21.87 c 0,3.78 0.7,4.38 4.87,4.58 l 0,0.95 -14.79,0 0,-0.95 c 4.23,-0.25 4.84,-0.64 4.84,-4.58 l 0,-21.87 c 0,-3.89 -0.65,-4.49 -4.84,-4.63 l 0,-0.95 z"
           id="path10150"
           style="fill:#0000ff;fill-opacity:1;stroke-width:0"
           inkscape:connector-curvature="0" /><path
           d="m 601.43,439.07 0.66,-0.53 0.63,-0.53 0.59,-0.54 0.57,-0.53 0.52,-0.54 0.5,-0.55 0.47,-0.54 0.44,-0.56 0.41,-0.55 0.39,-0.57 0.36,-0.57 0.33,-0.58 0.31,-0.59 0.28,-0.59 0.26,-0.61 0.24,-0.61 0.22,-0.63 0.19,-0.63 0.18,-0.65 0.16,-0.66 0.14,-0.68 0.13,-0.69 0.11,-0.7 0.09,-0.72 0.08,-0.73 0.06,-0.75 0.06,-0.77 0.04,-0.78 0.03,-0.81 0.02,-0.82 0.01,-0.84 0.01,-0.86 c 0,-9.68 -1.41,-14.35 -8.49,-20.18 l 0.46,-0.79 c 7.92,4.82 12.31,11.9 12.31,21.12 0,8.47 -4.53,16.78 -12.16,21.36 z"
           id="path10152"
           style="fill:#0000ff;fill-opacity:1;stroke-width:0"
           inkscape:connector-curvature="0" /></g>    </g>
    <g
       id="g10330"
       transform="matrix(0.38843978,0,0,0.38843978,241.42307,319.59783)">
      <g
         word-spacing="normal"
         letter-spacing="normal"
         font-size-adjust="none"
         font-stretch="normal"
         font-weight="normal"
         font-variant="normal"
         font-style="normal"
         stroke-miterlimit="10.433"
         xml:space="preserve"
         transform="matrix(1.0629921,0,0,-1.0629921,-186.02362,789.27165)"
         id="g10332"
         style="font-style:normal;font-variant:normal;font-weight:normal;font-stretch:normal;letter-spacing:normal;word-spacing:normal;text-anchor:start;fill:none;fill-opacity:1;fill-rule:evenodd;stroke:#000000;stroke-linecap:butt;stroke-linejoin:miter;stroke-miterlimit:10.43299961;stroke-dasharray:none;stroke-dashoffset:0;stroke-opacity:1"><polygon
           id="polygon10334"
           points="457.91,406.2 489.14,406.2 473.8,439.78 472.8,439.78 457.91,406.2 462.3,410.78 472,432.7 481.63,410.78 462.3,410.78 "
           style="fill:#ff0000;fill-opacity:1;stroke-width:0" /><path
           id="path10336"
           d="m 528.08,422.59 -15.59,0 -0.19,-0.8 0.94,0 c 3.04,0 3.73,-0.75 3.73,-1.84 0,-0.34 -0.04,-0.84 -0.14,-1.25 l -2.84,-10.02 c -1.34,-0.84 -2.8,-1.23 -4.83,-1.23 -7.33,0 -9.02,4.83 -9.02,8.91 0,8.92 4.43,21.28 15.85,21.28 5.62,0 7.97,-4.03 7.97,-7.68 0,-0.54 -0.05,-1.09 -0.11,-1.59 l 0.8,0 2.25,11.11 -0.8,0 c -0.16,-0.8 -1.05,-1.84 -2.14,-1.84 -1.1,0 -2.05,0.75 -3.14,1.04 -1.1,0.35 -2.69,0.8 -5.14,0.8 -12.6,0 -21.68,-10.77 -21.68,-21.22 0,-8.92 6.74,-12.65 14.55,-12.65 3.14,0 6.89,0 10.81,2.34 l 3.1,10.75 c 0.5,1.8 1.39,3.09 5.62,3.09 z"
           inkscape:connector-curvature="0"
           style="fill:#ff0000;fill-opacity:1;stroke-width:0" /><path
           id="path10338"
           d="m 545.56,440.23 0,0.09 0,0.09 -0.01,0.08 -0.02,0.09 -0.01,0.08 -0.02,0.08 -0.02,0.08 -0.03,0.08 -0.03,0.07 -0.03,0.08 -0.03,0.07 -0.04,0.07 -0.04,0.06 -0.04,0.07 -0.05,0.06 -0.05,0.05 -0.04,0.06 -0.06,0.05 -0.05,0.05 -0.06,0.05 -0.05,0.04 -0.06,0.04 -0.06,0.03 -0.07,0.04 -0.06,0.03 -0.07,0.02 -0.07,0.02 -0.06,0.02 -0.07,0.02 -0.07,0.01 -0.08,0 -0.07,0 c -0.48,0 -1.11,-0.18 -1.86,-0.48 -1.56,-0.64 -2.12,-0.78 -3.47,-0.83 0,2.02 0.14,2.88 0.89,4.78 0.3,0.74 0.46,1.35 0.46,1.75 0,0.86 -0.86,1.67 -1.75,1.67 -0.86,0 -1.72,-0.81 -1.72,-1.67 0,-0.4 0.14,-1.01 0.43,-1.75 0.76,-1.9 0.86,-2.76 0.86,-4.78 -1.29,0.05 -1.86,0.19 -3.42,0.83 -0.75,0.3 -1.37,0.48 -1.83,0.48 -0.82,0 -1.45,-0.71 -1.45,-1.64 0,-1.04 0.56,-1.61 1.64,-1.61 0.44,0 0.81,0.08 1.72,0.46 1.45,0.56 2.05,0.7 3.34,0.81 0,-3.28 -0.36,-5.17 -1.48,-6.64 1.08,-1 1.48,-2.86 1.48,-6.52 -1.29,0.11 -1.82,0.22 -3.39,0.82 -0.78,0.29 -1.45,0.45 -1.93,0.45 -0.82,0 -1.43,-0.67 -1.43,-1.56 0,-0.97 0.61,-1.69 1.46,-1.69 0.45,0 1.09,0.19 1.83,0.48 1.57,0.64 2.12,0.8 3.46,0.83 0,-2.01 -0.14,-2.87 -0.89,-4.78 -0.29,-0.73 -0.45,-1.33 -0.45,-1.75 0,-0.86 0.86,-1.67 1.72,-1.67 0.91,0 1.75,0.81 1.75,1.67 0,0.42 -0.14,1.02 -0.44,1.75 -0.75,1.91 -0.86,2.77 -0.86,4.78 1.35,-0.03 1.86,-0.19 3.42,-0.83 0.75,-0.29 1.43,-0.48 1.83,-0.48 0.83,0 1.46,0.72 1.46,1.61 0,0.97 -0.6,1.64 -1.41,1.64 -0.49,0 -1.2,-0.16 -1.94,-0.45 -1.58,-0.6 -2.09,-0.71 -3.36,-0.82 0,3.66 0.33,5.22 1.49,6.52 -1.16,1.39 -1.49,3.06 -1.49,6.64 1.3,-0.11 1.83,-0.22 3.39,-0.81 0.78,-0.3 1.46,-0.46 1.99,-0.46 0.78,0 1.37,0.68 1.37,1.57 z"
           inkscape:connector-curvature="0"
           style="fill:#ff0000;fill-opacity:1;stroke-width:0" /><path
           id="path10340"
           d="m 565.34,398.18 -0.64,0.55 -0.6,0.55 -0.58,0.54 -0.54,0.55 -0.52,0.55 -0.49,0.55 -0.46,0.55 -0.43,0.56 -0.41,0.56 -0.38,0.57 -0.36,0.57 -0.33,0.58 -0.31,0.58 -0.29,0.6 -0.26,0.6 -0.25,0.61 -0.22,0.63 -0.21,0.63 -0.18,0.64 -0.17,0.66 -0.15,0.67 -0.13,0.69 -0.11,0.69 -0.11,0.72 -0.08,0.72 -0.07,0.75 -0.06,0.76 -0.05,0.78 -0.04,0.8 -0.02,0.82 -0.01,0.83 -0.01,0.86 c 0,9.61 1.55,14.25 8.47,20.17 l -0.44,0.8 c -7.98,-4.72 -12.31,-11.91 -12.31,-21.11 0,-8.48 4.28,-16.89 12.16,-21.37 z"
           inkscape:connector-curvature="0"
           style="fill:#ff0000;fill-opacity:1;stroke-width:0" /><path
           id="path10342"
           d="m 582.45,406.2 0,0.95 c -4.08,0.14 -4.88,0.89 -4.88,4.63 l 0,21.87 c 0,3.78 0.7,4.38 4.88,4.58 l 0,0.95 -14.8,0 0,-0.95 c 4.23,-0.25 4.84,-0.64 4.84,-4.58 l 0,-21.87 c 0,-3.89 -0.65,-4.49 -4.84,-4.63 l 0,-0.95 z"
           inkscape:connector-curvature="0"
           style="fill:#ff0000;fill-opacity:1;stroke-width:0" /><path
           id="path10344"
           d="m 584.75,439.07 0.66,-0.53 0.63,-0.53 0.59,-0.54 0.57,-0.53 0.52,-0.54 0.5,-0.55 0.47,-0.54 0.44,-0.56 0.41,-0.55 0.39,-0.57 0.36,-0.57 0.33,-0.58 0.31,-0.59 0.28,-0.59 0.26,-0.61 0.24,-0.61 0.22,-0.63 0.19,-0.63 0.18,-0.65 0.16,-0.66 0.14,-0.68 0.13,-0.69 0.11,-0.7 0.09,-0.72 0.08,-0.73 0.06,-0.75 0.06,-0.77 0.04,-0.78 0.03,-0.81 0.02,-0.82 0.01,-0.84 0.01,-0.86 c 0,-9.68 -1.41,-14.35 -8.49,-20.18 l 0.46,-0.79 c 7.92,4.82 12.31,11.9 12.31,21.12 0,8.47 -4.53,16.78 -12.16,21.36 z"
           inkscape:connector-curvature="0"
           style="fill:#ff0000;fill-opacity:1;stroke-width:0" /></g>    </g>
  </g>
</svg>
