<?xml version="1.0" encoding="UTF-8" standalone="no"?>
<!-- Created with Inkscape (http://www.inkscape.org/) -->

<svg
   xmlns:dc="http://purl.org/dc/elements/1.1/"
   xmlns:cc="http://creativecommons.org/ns#"
   xmlns:rdf="http://www.w3.org/1999/02/22-rdf-syntax-ns#"
   xmlns:svg="http://www.w3.org/2000/svg"
   xmlns="http://www.w3.org/2000/svg"
   xmlns:sodipodi="http://sodipodi.sourceforge.net/DTD/sodipodi-0.dtd"
   xmlns:inkscape="http://www.inkscape.org/namespaces/inkscape"
   width="218.98128mm"
   height="92.660507mm"
   viewBox="0 0 775.91791 328.32463"
   id="svg23745"
   version="1.1"
   inkscape:version="0.91 r13725"
   sodipodi:docname="td-fluorescence.svg">
  <defs
     id="defs23747">
    <marker
       inkscape:collect="always"
       inkscape:isstock="true"
       style="overflow:visible"
       id="Arrow1Mstart-1"
       refX="0"
       refY="0"
       orient="auto"
       inkscape:stockid="Arrow1Mstart">
      <path
         transform="matrix(0.4,0,0,0.4,4,0)"
         style="fill:#000000;fill-opacity:1;fill-rule:evenodd;stroke:#000000;stroke-width:1pt;stroke-opacity:1"
         d="M 0,0 5,-5 -12.5,0 5,5 0,0 Z"
         id="path4222-2"
         inkscape:connector-curvature="0" />
    </marker>
    <marker
       inkscape:collect="always"
       inkscape:isstock="true"
       style="overflow:visible"
       id="Arrow1Mstart-3-7"
       refX="0"
       refY="0"
       orient="auto"
       inkscape:stockid="Arrow1Mstart">
      <path
         transform="matrix(0.4,0,0,0.4,4,0)"
         style="fill:#000000;fill-opacity:1;fill-rule:evenodd;stroke:#000000;stroke-width:1pt;stroke-opacity:1"
         d="M 0,0 5,-5 -12.5,0 5,5 0,0 Z"
         id="path4222-6-0"
         inkscape:connector-curvature="0" />
    </marker>
    <marker
       inkscape:isstock="true"
       style="overflow:visible"
       id="marker17379"
       refX="0"
       refY="0"
       orient="auto"
       inkscape:stockid="Arrow1Lend">
      <path
         inkscape:connector-curvature="0"
         transform="matrix(-0.8,0,0,-0.8,-10,0)"
         style="fill:#000000;fill-opacity:1;fill-rule:evenodd;stroke:#000000;stroke-width:1pt;stroke-opacity:1"
         d="M 0,0 5,-5 -12.5,0 5,5 0,0 Z"
         id="path17381" />
    </marker>
  </defs>
  <sodipodi:namedview
     id="base"
     pagecolor="#ffffff"
     bordercolor="#666666"
     borderopacity="1.0"
     inkscape:pageopacity="0.0"
     inkscape:pageshadow="2"
     inkscape:zoom="1.1566406"
     inkscape:cx="68.27472"
     inkscape:cy="33.139018"
     inkscape:document-units="px"
     inkscape:current-layer="layer1"
     showgrid="false"
     fit-margin-top="0"
     fit-margin-left="0"
     fit-margin-right="0"
     fit-margin-bottom="0"
     inkscape:window-width="1920"
     inkscape:window-height="1016"
     inkscape:window-x="0"
     inkscape:window-y="27"
     inkscape:window-maximized="1" />
  <metadata
     id="metadata23750">
    <rdf:RDF>
      <cc:Work
         rdf:about="">
        <dc:format>image/svg+xml</dc:format>
        <dc:type
           rdf:resource="http://purl.org/dc/dcmitype/StillImage" />
        <dc:title></dc:title>
      </cc:Work>
    </rdf:RDF>
  </metadata>
  <g
     inkscape:label="Layer 1"
     inkscape:groupmode="layer"
     id="layer1"
     transform="translate(-149.80532,-237.17658)">
    <g
       style="display:inline"
       id="g23668"
       transform="matrix(1.7389927,0,0,1.7389927,-233.38881,141.69896)">
      <g
         transform="translate(0.50761421,-5.0761421)"
         id="g17367">
        <path
           inkscape:connector-curvature="0"
           id="path4210-3"
           d="m 223.4746,73.796095 1.86236,147.715675"
           style="fill:none;fill-rule:evenodd;stroke:#000000;stroke-width:1.5;stroke-linecap:butt;stroke-linejoin:miter;stroke-miterlimit:4;stroke-dasharray:none;stroke-opacity:1;marker-start:url(#Arrow1Mstart-1)" />
        <path
           inkscape:connector-curvature="0"
           id="path4210-7-6"
           d="M 663.16957,220.80725 224.58498,221.4345"
           style="fill:none;fill-rule:evenodd;stroke:#000000;stroke-width:1.5;stroke-linecap:butt;stroke-linejoin:miter;stroke-miterlimit:4;stroke-dasharray:none;stroke-opacity:1;marker-start:url(#Arrow1Mstart-3-7)" />
      </g>
      <path
         sodipodi:nodetypes="cscsac"
         inkscape:connector-curvature="0"
         id="path17258"
         d="m 392.28247,205.99595 c 0,0 12.19481,2.09582 63.46974,-3.13554 55.66227,-5.67899 43.80127,-103.828314 79.11146,-104.294503 29.707,1.267457 29.50966,92.586693 45.00247,77.018103 19.79282,-19.88964 28.11448,23.24644 45.0968,28.55218 10.64985,3.3273 33.44414,1.37909 33.44414,1.37909"
         style="fill:none;fill-rule:evenodd;stroke:#a000f2;stroke-width:1;stroke-linecap:butt;stroke-linejoin:miter;stroke-miterlimit:4;stroke-dasharray:3, 1;stroke-dashoffset:0;stroke-opacity:1" />
      <path
         sodipodi:nodetypes="csacc"
         inkscape:connector-curvature="0"
         id="path17258-6"
         d="m 619.84329,206.44687 c 0,0 -12.19481,2.09582 -63.46974,-3.13554 -55.66227,-5.67899 -35.49472,-103.03905 -79.11146,-104.294498 -46.24454,-1.331088 -33.54289,83.115998 -90.09927,105.570278 -10.64985,3.3273 -33.44414,1.37909 -33.44414,1.37909"
         style="display:inline;fill:none;fill-rule:evenodd;stroke:#a000f2;stroke-width:1;stroke-linecap:butt;stroke-linejoin:miter;stroke-miterlimit:4;stroke-dasharray:none;stroke-dashoffset:0;stroke-opacity:1" />
      <path
         sodipodi:nodetypes="csacc"
         inkscape:connector-curvature="0"
         id="path17258-6-8"
         d="m 588.49812,206.4545 c 0,0 -12.19481,2.09582 -63.46974,-3.13554 -55.66227,-5.67898 -35.49472,-103.03904 -79.11146,-104.294492 -46.24454,-1.331088 -33.54289,83.116002 -90.09927,105.570272 -10.64985,3.3273 -33.44414,1.37909 -33.44414,1.37909"
         style="display:inline;fill:none;fill-rule:evenodd;stroke:#0d65d3;stroke-width:1;stroke-linecap:butt;stroke-linejoin:miter;stroke-miterlimit:4;stroke-dasharray:none;stroke-dashoffset:0;stroke-opacity:1" />
      <path
         sodipodi:nodetypes="csacc"
         inkscape:connector-curvature="0"
         id="path17258-6-7"
         d="m 557.15293,206.96212 c 0,0 -12.19481,2.09582 -63.46974,-3.13554 -55.66227,-5.67899 -35.49472,-103.03905 -79.11146,-104.294497 -46.24454,-1.331088 -33.54289,83.115997 -90.09927,105.570277 -10.64985,3.3273 -33.44414,1.37909 -33.44414,1.37909"
         style="display:inline;fill:none;fill-rule:evenodd;stroke:#0ced0f;stroke-width:1;stroke-linecap:butt;stroke-linejoin:miter;stroke-miterlimit:4;stroke-dasharray:none;stroke-dashoffset:0;stroke-opacity:0.65490196" />
      <path
         sodipodi:nodetypes="csacc"
         inkscape:connector-curvature="0"
         id="path17258-6-7-9"
         d="m 525.80774,207.97735 c 0,0 -12.19481,2.09582 -63.46974,-3.13554 -55.66227,-5.67899 -35.49472,-103.03905 -79.11146,-104.2945 -46.24454,-1.331087 -33.54289,83.116 -90.09928,105.57028 -10.64985,3.3273 -33.44414,1.37909 -33.44414,1.37909"
         style="display:inline;fill:none;fill-rule:evenodd;stroke:#f1c90f;stroke-width:1;stroke-linecap:butt;stroke-linejoin:miter;stroke-miterlimit:4;stroke-dasharray:none;stroke-dashoffset:0;stroke-opacity:0.81176471" />
      <path
         sodipodi:nodetypes="csacc"
         inkscape:connector-curvature="0"
         id="path17258-6-7-2"
         d="m 494.46257,207.97735 c 0,0 -12.19481,2.09582 -63.46974,-3.13554 -55.66227,-5.67899 -35.49472,-103.03905 -79.11146,-104.2945 -46.24454,-1.331087 -33.54289,83.116 -90.09927,105.57028 -10.64985,3.3273 -33.44414,1.37909 -33.44414,1.37909"
         style="display:inline;fill:none;fill-rule:evenodd;stroke:#f2000f;stroke-width:1;stroke-linecap:butt;stroke-linejoin:miter;stroke-miterlimit:4;stroke-dasharray:none;stroke-dashoffset:0;stroke-opacity:1" />
      <path
         inkscape:connector-curvature="0"
         id="path17371"
         d="m 451.77665,75.274051 -83.62037,0"
         style="fill:none;fill-rule:evenodd;stroke:#000000;stroke-width:0.89208037px;stroke-linecap:butt;stroke-linejoin:miter;stroke-opacity:1;marker-end:url(#marker17379)" />
      <g
         transform="matrix(0.60805265,0,0,0.60805265,247.83714,-8.1115229)"
         id="g20561">
        <g
           style="font-style:normal;font-variant:normal;font-weight:normal;font-stretch:normal;letter-spacing:normal;word-spacing:normal;text-anchor:start;fill:none;fill-opacity:1;fill-rule:evenodd;stroke:#000000;stroke-linecap:butt;stroke-linejoin:miter;stroke-miterlimit:10.43299961;stroke-dasharray:none;stroke-dashoffset:0;stroke-opacity:1"
           id="content"
           transform="matrix(0.92696872,0,0,-0.92696872,-162.21953,506.90342)"
           xml:space="preserve"
           stroke-miterlimit="10.433"
           font-style="normal"
           font-variant="normal"
           font-weight="normal"
           font-stretch="normal"
           font-size-adjust="none"
           letter-spacing="normal"
           word-spacing="normal"><path
             style="fill:#000000;stroke-width:0"
             inkscape:connector-curvature="0"
             d="m 468.77,410.04 -0.1,-0.12 -0.1,-0.11 -0.1,-0.11 -0.1,-0.1 -0.09,-0.1 -0.1,-0.1 -0.09,-0.09 -0.09,-0.09 -0.1,-0.08 -0.09,-0.08 -0.09,-0.07 -0.09,-0.07 -0.09,-0.07 -0.09,-0.06 -0.08,-0.05 -0.09,-0.06 -0.09,-0.05 -0.09,-0.04 -0.09,-0.05 -0.09,-0.04 -0.09,-0.03 -0.09,-0.03 -0.09,-0.03 -0.09,-0.03 -0.09,-0.02 -0.1,-0.02 -0.09,-0.01 -0.1,-0.02 -0.09,0 -0.1,-0.01 -0.1,-0.01 -0.1,0 c -1.85,0 -2.6,1.3 -2.6,4.49 l 0,14.25 5.03,0 0,1.59 -5.03,0 0,5.78 c 0,0.5 -0.09,0.64 -0.34,0.64 -0.3,-0.5 -0.71,-0.93 -1,-1.39 -1.89,-2.73 -3.53,-4.58 -4.83,-5.33 -0.55,-0.36 -0.86,-0.65 -0.86,-0.95 0,-0.14 0.06,-0.25 0.2,-0.34 l 2.64,0 0,-15 c 0,-4.19 1.5,-6.33 4.39,-6.33 2.49,0 4.38,1.2 6.04,3.78 z"
             id="path20564" /></g>      </g>
      <g
         transform="matrix(0.4070175,0,0,0.4070175,219.01014,177.58049)"
         id="g21760">
        <g
           style="font-style:normal;font-variant:normal;font-weight:normal;font-stretch:normal;letter-spacing:normal;word-spacing:normal;text-anchor:start;fill:#2b1100;fill-opacity:1;fill-rule:evenodd;stroke:#000000;stroke-linecap:butt;stroke-linejoin:miter;stroke-miterlimit:10.43299961;stroke-dasharray:none;stroke-dashoffset:0;stroke-opacity:1"
           word-spacing="normal"
           letter-spacing="normal"
           font-size-adjust="none"
           font-stretch="normal"
           font-weight="normal"
           font-variant="normal"
           font-style="normal"
           stroke-miterlimit="10.433"
           xml:space="preserve"
           transform="matrix(0.92696872,0,0,-0.92696872,-173.44393,173.91284)"
           id="g21762"><path
             style="fill:#2b1100;stroke-width:0"
             inkscape:connector-curvature="0"
             id="path21764"
             d="m 477.64,428.42 -0.33,-1.16 -0.37,-1.18 -0.41,-1.2 -0.45,-1.21 -0.48,-1.21 -0.52,-1.22 -0.57,-1.2 -0.6,-1.19 -0.65,-1.17 -0.7,-1.14 -0.36,-0.55 -0.38,-0.55 -0.39,-0.53 -0.4,-0.52 -0.41,-0.51 -0.43,-0.5 -0.43,-0.48 -0.45,-0.47 -0.47,-0.45 -0.47,-0.44 -0.49,-0.41 -0.5,-0.4 -2.99,17.44 c -1.9,-0.55 -2.84,-1 -6.39,-1.14 l 0,-0.8 0.8,0 c 1.2,0 1.95,-0.5 2.2,-2.09 l 3.08,-18.39 1.05,0 c 7.78,5.32 12.51,13.65 13.41,22.42 z" /><path
             style="fill:#2b1100;stroke-width:0"
             inkscape:connector-curvature="0"
             id="path21766"
             d="m 495.74,398.18 -0.64,0.55 -0.61,0.55 -0.57,0.54 -0.55,0.55 -0.51,0.55 -0.49,0.55 -0.46,0.55 -0.43,0.56 -0.41,0.56 -0.38,0.57 -0.36,0.57 -0.33,0.58 -0.31,0.58 -0.29,0.6 -0.27,0.6 -0.24,0.61 -0.22,0.63 -0.21,0.63 -0.18,0.64 -0.17,0.66 -0.15,0.67 -0.13,0.69 -0.12,0.69 -0.1,0.72 -0.08,0.72 -0.08,0.75 -0.06,0.76 -0.04,0.78 -0.04,0.8 -0.02,0.82 -0.02,0.83 0,0.86 c 0,9.61 1.55,14.25 8.47,20.17 l -0.44,0.8 c -7.98,-4.72 -12.31,-11.91 -12.31,-21.11 0,-8.48 4.28,-16.89 12.15,-21.37 z" /><path
             style="fill:#2b1100;stroke-width:0"
             inkscape:connector-curvature="0"
             id="path21768"
             d="m 539.7,417.26 -0.01,0.62 -0.04,0.6 -0.06,0.58 -0.09,0.56 -0.11,0.55 -0.14,0.53 -0.16,0.5 -0.17,0.5 -0.2,0.47 -0.22,0.45 -0.23,0.44 -0.25,0.41 -0.27,0.4 -0.28,0.38 -0.3,0.35 -0.32,0.34 -0.32,0.32 -0.34,0.3 -0.35,0.28 -0.36,0.26 -0.37,0.24 -0.38,0.22 -0.39,0.2 -0.39,0.18 -0.4,0.16 -0.41,0.14 -0.41,0.11 -0.41,0.1 -0.42,0.07 -0.42,0.06 -0.42,0.03 -0.42,0.01 c -5.03,0 -7.33,-3.19 -9.62,-7.33 l 1,-1.89 c 1.45,2.1 3.34,5.03 7.78,5.03 4.37,0 6.92,-3.82 6.92,-8.36 0,-3.2 -2.2,-5.93 -4.99,-5.93 -3.39,0 -6.12,3.18 -9.71,9.12 l 0,0.14 -1,1.89 c -4.74,6.39 -7.22,7.33 -10.86,7.33 -2.89,0 -9.52,-2.3 -9.52,-11.45 0,-6.88 4.48,-9.97 8.77,-9.97 4.78,0 8.17,2.69 10.42,7.22 l -1.1,1.79 c -1.34,-1.79 -3.73,-4.82 -8.17,-4.82 -4.39,0 -6.92,4.12 -6.92,8.37 0,3.19 2.19,5.92 4.97,5.92 3.39,0 6.53,-3.39 10.12,-9.31 l 0,-0.16 1.1,-1.79 c 3.08,-4.58 5.92,-7.22 10.01,-7.22 6.27,0 9.86,6.23 9.86,11.06 z" /><path
             style="fill:#2b1100;stroke-width:0"
             inkscape:connector-curvature="0"
             id="path21770"
             d="m 544.67,439.07 0.66,-0.53 0.63,-0.53 0.59,-0.54 0.56,-0.53 0.53,-0.54 0.5,-0.55 0.47,-0.54 0.44,-0.56 0.41,-0.55 0.39,-0.57 0.35,-0.57 0.34,-0.58 0.3,-0.59 0.29,-0.59 0.26,-0.61 0.24,-0.61 0.21,-0.63 0.2,-0.63 0.18,-0.65 0.16,-0.66 0.14,-0.68 0.13,-0.69 0.1,-0.7 0.1,-0.72 0.08,-0.73 0.06,-0.75 0.06,-0.77 0.04,-0.78 0.03,-0.81 0.02,-0.82 0.01,-0.84 0.01,-0.86 c 0,-9.68 -1.41,-14.35 -8.49,-20.18 l 0.45,-0.79 c 7.93,4.82 12.32,11.9 12.32,21.12 0,8.47 -4.53,16.78 -12.16,21.36 z" /></g>      </g>
      <g
         transform="matrix(0.38123565,0,0,0.38123565,367.90555,44.603968)"
         id="g22978">
        <g
           style="font-style:normal;font-variant:normal;font-weight:normal;font-stretch:normal;letter-spacing:normal;word-spacing:normal;text-anchor:start;fill:none;fill-opacity:1;fill-rule:evenodd;stroke:#000000;stroke-linecap:butt;stroke-linejoin:miter;stroke-miterlimit:10.43299961;stroke-dasharray:none;stroke-dashoffset:0;stroke-opacity:1"
           id="g22980"
           transform="matrix(0.92696872,0,0,-0.92696872,-162.21953,506.90342)"
           xml:space="preserve"
           stroke-miterlimit="10.433"
           font-style="normal"
           font-variant="normal"
           font-weight="normal"
           font-stretch="normal"
           font-size-adjust="none"
           letter-spacing="normal"
           word-spacing="normal"><path
             style="fill:#000000;stroke-width:0"
             inkscape:connector-curvature="0"
             d="m 477.64,428.42 -0.33,-1.16 -0.37,-1.18 -0.41,-1.2 -0.45,-1.21 -0.48,-1.21 -0.52,-1.22 -0.57,-1.2 -0.6,-1.19 -0.65,-1.17 -0.7,-1.14 -0.36,-0.55 -0.38,-0.55 -0.39,-0.53 -0.4,-0.52 -0.41,-0.51 -0.43,-0.5 -0.43,-0.48 -0.45,-0.47 -0.47,-0.45 -0.47,-0.44 -0.49,-0.41 -0.5,-0.4 -2.99,17.44 c -1.9,-0.55 -2.84,-1 -6.39,-1.14 l 0,-0.8 0.8,0 c 1.2,0 1.95,-0.5 2.2,-2.09 l 3.08,-18.39 1.05,0 c 7.78,5.32 12.51,13.65 13.41,22.42 z"
             id="path22982" /><path
             style="fill:#000000;stroke-width:0"
             inkscape:connector-curvature="0"
             d="m 495.74,398.18 -0.64,0.55 -0.61,0.55 -0.57,0.54 -0.55,0.55 -0.51,0.55 -0.49,0.55 -0.46,0.55 -0.43,0.56 -0.41,0.56 -0.38,0.57 -0.36,0.57 -0.33,0.58 -0.31,0.58 -0.29,0.6 -0.27,0.6 -0.24,0.61 -0.22,0.63 -0.21,0.63 -0.18,0.64 -0.17,0.66 -0.15,0.67 -0.13,0.69 -0.12,0.69 -0.1,0.72 -0.08,0.72 -0.08,0.75 -0.06,0.76 -0.04,0.78 -0.04,0.8 -0.02,0.82 -0.02,0.83 0,0.86 c 0,9.61 1.55,14.25 8.47,20.17 l -0.44,0.8 c -7.98,-4.72 -12.31,-11.91 -12.31,-21.11 0,-8.48 4.28,-16.89 12.15,-21.37 z"
             id="path22984" /><path
             style="fill:#000000;stroke-width:0"
             inkscape:connector-curvature="0"
             d="m 520.88,422.64 -0.02,0.95 -0.04,0.92 -0.06,0.91 -0.09,0.89 -0.12,0.87 -0.14,0.84 -0.16,0.82 -0.19,0.8 -0.2,0.77 -0.24,0.75 -0.25,0.72 -0.27,0.7 -0.3,0.67 -0.31,0.64 -0.34,0.61 -0.36,0.59 -0.37,0.55 -0.4,0.52 -0.41,0.49 -0.43,0.46 -0.44,0.43 -0.47,0.39 -0.48,0.36 -0.49,0.33 -0.51,0.28 -0.53,0.26 -0.54,0.21 -0.56,0.18 -0.56,0.14 -0.59,0.1 -0.59,0.06 -0.61,0.02 c -8.01,0 -11.45,-8.11 -11.45,-16.94 0,-8.17 2.73,-17.43 11.25,-17.43 l 0,1.29 c -4.28,0 -6.47,5.69 -6.47,15.8 0,10.11 2.24,16 6.38,16 4.37,0 6.57,-5.83 6.57,-16.2 l 0,0 c 0,-9.86 -2.25,-15.6 -6.48,-15.6 l 0,-1.29 c 8.12,0 11.27,8.57 11.27,17.14 z"
             id="path22986" /><path
             style="fill:#000000;stroke-width:0"
             inkscape:connector-curvature="0"
             d="m 523.55,439.07 0.66,-0.53 0.63,-0.53 0.59,-0.54 0.56,-0.53 0.53,-0.54 0.5,-0.55 0.47,-0.54 0.44,-0.56 0.41,-0.55 0.38,-0.57 0.36,-0.57 0.33,-0.58 0.31,-0.59 0.29,-0.59 0.26,-0.61 0.24,-0.61 0.21,-0.63 0.2,-0.63 0.18,-0.65 0.16,-0.66 0.14,-0.68 0.12,-0.69 0.11,-0.7 0.1,-0.72 0.08,-0.73 0.06,-0.75 0.06,-0.77 0.04,-0.78 0.03,-0.81 0.02,-0.82 0.01,-0.84 0,-0.86 c 0,-9.68 -1.4,-14.35 -8.48,-20.18 l 0.45,-0.79 c 7.93,4.82 12.32,11.9 12.32,21.12 0,8.47 -4.54,16.78 -12.16,21.36 z"
             id="path22988" /></g>      </g>
      <text
         sodipodi:linespacing="125%"
         id="text23664"
         y="237.7106"
         x="379.18781"
         style="font-style:normal;font-variant:normal;font-weight:normal;font-stretch:normal;font-size:27.5px;line-height:125%;font-family:STIX;-inkscape-font-specification:STIX;letter-spacing:0px;word-spacing:0px;fill:#000000;fill-opacity:1;stroke:none;stroke-width:1px;stroke-linecap:butt;stroke-linejoin:miter;stroke-opacity:1"
         xml:space="preserve"><tspan
           y="237.7106"
           x="379.18781"
           id="tspan23666"
           sodipodi:role="line">Frequency</tspan></text>
    </g>
  </g>
</svg>
